<?xml version="1.0" standalone="no"?>
<!DOCTYPE svg PUBLIC "-//W3C//DTD SVG 20010904//EN"
 "http://www.w3.org/TR/2001/REC-SVG-20010904/DTD/svg10.dtd">
<svg version="1.0" xmlns="http://www.w3.org/2000/svg"
 width="800.000000pt" height="533.000000pt" viewBox="0 0 800.000000 533.000000"
 preserveAspectRatio="xMidYMid meet">
<metadata>
Created by potrace 1.16, written by Peter Selinger 2001-2019
</metadata>
<g transform="translate(0.000000,533.000000) scale(0.100000,-0.100000)"
fill="#000000" stroke="none">
<path d="M1809 4593 c-17 -37 -105 -234 -196 -438 -91 -203 -217 -485 -280
-625 -102 -226 -211 -470 -429 -958 -205 -457 -276 -554 -449 -614 -65 -22
-70 -26 -70 -53 l0 -30 453 -3 452 -2 0 33 0 33 -116 16 c-127 19 -161 34
-207 91 -25 30 -32 49 -35 97 -5 75 18 155 105 358 l66 152 477 0 c374 0 480
-3 488 -13 15 -18 181 -410 203 -480 18 -57 18 -59 0 -95 -41 -80 -113 -113
-258 -120 l-103 -5 0 -33 0 -34 705 0 705 0 0 34 c0 33 -1 33 -54 39 -29 3
-77 15 -105 27 -107 46 -166 145 -376 620 -64 146 -134 304 -155 351 -22 48
-87 196 -145 330 -59 134 -144 327 -190 429 -112 250 -385 870 -385 875 0 10
150 5 200 -6 62 -13 138 -63 164 -107 15 -26 21 -66 28 -179 l10 -145 295
-672 c163 -369 309 -705 327 -746 l31 -75 5 231 5 232 50 41 c47 39 50 40 66
23 23 -23 598 -747 676 -850 76 -100 129 -195 138 -242 12 -72 -43 -115 -172
-135 -41 -6 -43 -8 -43 -41 l0 -34 725 0 725 0 0 34 c0 32 -1 33 -48 39 -62 7
-147 40 -208 79 -108 71 -259 242 -699 793 -241 303 -478 599 -527 660 l-88
109 22 22 c32 30 915 736 1013 810 179 134 230 153 280 103 37 -36 53 -133 60
-358 15 -490 54 -627 228 -809 108 -112 257 -192 459 -247 80 -21 274 -54 326
-55 11 0 13 -87 10 -467 -3 -453 -4 -470 -24 -514 -38 -81 -113 -117 -264
-127 l-95 -7 -3 -32 -3 -33 720 0 721 0 0 35 0 35 -77 0 c-148 0 -243 43 -284
127 l-24 48 0 470 0 470 40 3 c84 5 253 35 334 58 251 73 425 204 535 405 77
141 94 236 106 599 12 375 26 416 147 429 l58 6 0 35 c0 32 -3 35 -45 48 -65
20 -249 19 -333 -1 -172 -42 -319 -155 -392 -302 -56 -111 -72 -221 -95 -621
-11 -204 -29 -293 -73 -359 -55 -84 -122 -124 -254 -150 l-33 -7 1 554 c0 304
4 576 8 605 10 72 50 126 118 160 46 22 72 27 159 31 l104 5 0 33 0 34 -721 0
-720 0 3 -32 3 -33 95 -6 c150 -9 210 -36 258 -119 l27 -45 3 -592 c3 -675 14
-606 -91 -578 -68 18 -121 50 -165 99 -75 86 -99 183 -112 456 -14 285 -28
414 -55 487 -68 188 -212 320 -405 372 -94 26 -118 26 -727 23 l-503 -2 0 -33
0 -33 104 -11 c147 -15 209 -58 209 -142 0 -91 -80 -178 -388 -426 -110 -89
-345 -279 -523 -423 -178 -144 -328 -262 -333 -262 -16 0 -6 1055 10 1105 17
53 85 117 141 134 25 7 73 16 108 19 l62 5 0 33 0 34 -637 0 c-351 1 -680 3
-731 6 l-92 6 -31 -69z m-34 -1278 c97 -225 187 -434 201 -464 13 -29 24 -55
24 -57 0 -2 -184 -4 -410 -4 -295 0 -410 3 -410 11 0 13 34 91 250 574 158
354 160 358 165 353 2 -2 83 -187 180 -413z"/>
<path d="M1040 810 l0 -340 40 0 40 0 0 340 0 340 -40 0 -40 0 0 -340z"/>
<path d="M1810 811 l0 -341 40 0 40 0 0 166 0 166 34 34 c46 46 113 50 155 9
31 -30 40 -84 41 -242 l0 -133 41 0 41 0 -4 173 c-3 162 -5 175 -28 217 -33
59 -78 82 -147 77 -41 -3 -62 -11 -93 -36 l-39 -31 -3 137 -3 138 -37 3 -38 3
0 -340z"/>
<path d="M5762 1110 l-22 -10 0 -310 1 -310 40 0 39 0 0 125 0 125 63 0 c90 0
155 22 199 67 88 91 67 244 -42 299 -40 20 -239 31 -278 14z m228 -72 c36 -19
48 -31 60 -65 13 -38 13 -48 0 -85 -24 -69 -115 -112 -199 -93 l-31 7 0 123
c0 89 3 125 13 128 33 14 115 6 157 -15z"/>
<path d="M625 1098 c-35 -94 -205 -604 -205 -615 0 -10 10 -13 38 -11 40 3 33
-11 98 181 5 16 18 17 121 15 l116 -3 18 -55 c48 -142 47 -140 90 -140 21 0
39 4 39 9 0 5 -45 141 -101 302 -56 162 -103 302 -106 312 -4 13 -16 17 -54
17 -31 0 -51 -5 -54 -12z m99 -212 c25 -77 43 -142 41 -145 -1 -3 -43 -6 -92
-5 -69 1 -88 4 -87 15 2 18 86 280 90 277 1 -2 23 -66 48 -142z"/>
<path d="M3000 790 l0 -320 40 0 40 0 0 121 c0 114 1 122 26 155 15 19 31 34
38 34 6 -1 56 -69 111 -152 55 -82 105 -152 111 -155 7 -2 28 -3 49 -1 l36 3
-120 178 c-67 97 -121 182 -121 188 0 6 47 66 105 135 58 68 105 126 105 129
0 3 -20 5 -45 5 l-45 0 -102 -126 c-57 -69 -110 -137 -118 -150 -8 -13 -18
-24 -22 -24 -5 0 -8 68 -8 150 l0 150 -40 0 -40 0 0 -320z"/>
<path d="M6321 940 c-95 -23 -138 -111 -92 -187 14 -22 43 -42 95 -67 100 -48
119 -84 71 -131 -19 -20 -34 -25 -72 -25 -26 0 -60 7 -75 14 -25 13 -29 13
-38 -4 -18 -34 -11 -49 28 -59 57 -17 143 -13 181 7 52 26 74 62 73 117 -2 65
-22 91 -103 130 -89 42 -99 51 -99 86 0 54 58 80 128 56 l41 -14 10 29 c9 25
8 30 -12 37 -38 15 -101 20 -136 11z"/>
<path d="M1425 926 c-16 -7 -41 -25 -55 -39 -29 -30 -40 -27 -40 14 0 27 -3
29 -35 29 l-35 0 2 -322 3 -323 38 -3 37 -3 0 127 0 127 23 -21 c29 -27 88
-52 125 -52 74 0 138 41 178 114 24 44 28 62 28 132 0 71 -3 86 -31 134 -49
88 -150 124 -238 86z m125 -75 c88 -65 87 -239 -2 -305 -37 -26 -109 -26 -146
1 -60 43 -81 155 -46 243 33 82 126 112 194 61z"/>
<path d="M2387 925 c-49 -17 -51 -19 -43 -49 6 -24 7 -25 41 -10 44 18 125 18
151 -1 26 -17 48 -69 40 -90 -4 -10 -19 -15 -49 -15 -67 0 -147 -28 -183 -64
-59 -59 -55 -162 9 -208 47 -34 130 -32 185 5 51 33 52 33 52 2 0 -22 4 -25
35 -25 l35 0 0 158 c0 213 -17 264 -97 298 -41 18 -126 17 -176 -1z m193 -265
c0 -66 -22 -108 -67 -127 -98 -41 -174 47 -108 125 26 31 74 49 138 51 l37 1
0 -50z"/>
<path d="M3567 924 c-31 -14 -36 -20 -31 -38 9 -30 9 -30 45 -17 18 6 56 11
86 11 65 0 103 -29 103 -79 0 -32 3 -31 -103 -45 -58 -8 -127 -45 -148 -80
-22 -36 -25 -109 -6 -145 22 -43 61 -64 119 -64 56 0 88 12 125 45 l21 20 7
-31 c6 -27 11 -31 38 -31 l32 0 -3 178 c-4 194 -12 226 -66 266 -37 28 -164
33 -219 10z m211 -264 c3 -57 -25 -106 -75 -126 -65 -28 -123 3 -123 66 0 21
8 47 18 59 23 29 87 51 137 48 40 -2 40 -2 43 -47z"/>
<path d="M4144 926 c-17 -7 -40 -25 -51 -39 -23 -30 -33 -26 -33 15 0 25 -3
28 -35 28 l-35 0 2 -322 3 -323 35 0 35 0 3 122 3 122 43 -31 c37 -25 54 -31
98 -30 64 1 93 11 138 48 76 65 98 211 47 315 -37 77 -75 103 -157 106 -40 2
-77 -2 -96 -11z m143 -77 c41 -39 56 -79 56 -144 -1 -74 -30 -138 -73 -160
-68 -35 -158 -5 -187 63 -21 49 -14 166 12 206 45 69 137 85 192 35z"/>
<path d="M4694 930 c-11 -4 -35 -22 -52 -39 l-31 -31 -3 32 c-3 30 -6 33 -42
36 l-39 3 7 -62 c3 -34 6 -178 6 -320 l0 -259 41 0 40 0 -1 113 c-1 61 -1 116
-1 121 1 6 10 0 22 -13 29 -31 61 -41 128 -41 45 0 66 6 98 27 105 68 136 252
60 364 -38 57 -81 79 -151 78 -34 0 -70 -4 -82 -9z m123 -70 c48 -29 67 -73
67 -155 0 -48 -5 -80 -17 -103 -50 -92 -180 -96 -233 -8 -25 43 -26 168 -1
214 23 42 72 72 117 72 19 0 49 -9 67 -20z"/>
<path d="M5123 929 c-38 -11 -47 -22 -38 -50 5 -16 12 -19 28 -14 107 32 166
25 192 -25 29 -57 23 -65 -60 -78 -86 -13 -144 -39 -174 -78 -45 -57 -35 -142
22 -190 28 -24 37 -26 98 -22 54 3 73 9 103 31 l36 28 0 -25 c0 -23 4 -26 38
-26 l37 0 -3 167 c-4 192 -16 238 -74 273 -36 22 -144 27 -205 9z m197 -269
c0 -87 -36 -131 -111 -132 -64 -1 -99 46 -79 106 15 47 67 74 148 75 l42 1 0
-50z"/>
<path d="M6610 711 l0 -231 40 0 40 0 -2 228 -3 227 -37 3 -38 3 0 -230z"/>
</g>
</svg>
