<?xml version="1.0" standalone="no"?>
<!DOCTYPE svg PUBLIC "-//W3C//DTD SVG 20010904//EN"
 "http://www.w3.org/TR/2001/REC-SVG-20010904/DTD/svg10.dtd">
<svg version="1.0" xmlns="http://www.w3.org/2000/svg"
 width="3000.000000pt" height="2000.000000pt" viewBox="0 0 3000.000000 2000.000000"
 preserveAspectRatio="xMidYMid meet">

<g transform="translate(0.000000,2000.000000) scale(0.100000,-0.100000)"
fill="#000000" stroke="none">
<path d="M9717 12863 c-4 -3 -7 -1290 -7 -2860 l0 -2853 1598 0 c1590 0 1688
2 1927 36 379 53 752 191 1005 371 305 218 511 537 591 916 45 212 34 513 -27
725 -105 364 -392 684 -770 858 -42 20 -74 37 -72 39 1 1 41 19 88 38 170 70
295 154 411 273 168 175 269 386 321 673 29 160 32 504 5 631 -134 637 -624
998 -1522 1121 -131 18 -229 22 -775 29 -767 10 -2764 12 -2773 3z m3448
-1248 c243 -64 395 -304 344 -547 -37 -178 -190 -338 -360 -377 -28 -7 -404
-11 -1036 -11 l-993 0 0 468 c0 258 3 472 7 475 3 4 450 7 993 7 853 0 994 -2
1045 -15z m-43 -2186 c167 -35 303 -156 358 -320 18 -53 21 -81 18 -164 -3
-91 -7 -107 -40 -177 -61 -129 -166 -224 -296 -267 -60 -21 -79 -21 -1052 -21
l-990 0 0 480 0 480 975 0 c672 0 990 -3 1027 -11z"/>
<path d="M6225 12853 c-520 -44 -871 -125 -1160 -270 -322 -161 -621 -386
-849 -639 -530 -586 -788 -1314 -746 -2104 15 -275 37 -419 96 -623 143 -491
441 -964 810 -1288 513 -450 1020 -651 1869 -744 306 -33 434 -36 1508 -42
l1097 -6 0 691 0 690 -37 -4 c-95 -9 -1298 -12 -1748 -4 -683 13 -875 27
-1097 81 -412 100 -725 326 -929 669 -131 221 -209 517 -209 793 0 783 524
1362 1340 1481 185 27 577 36 1638 36 l1032 0 0 645 0 645 -1287 -2 c-709 -1
-1306 -3 -1328 -5z"/>
<path d="M15560 10001 l0 -2861 695 0 695 0 0 1155 0 1155 818 0 c691 0 827
-3 882 -15 145 -34 258 -95 366 -198 122 -115 197 -243 234 -401 19 -77 20
-123 20 -888 l0 -808 680 0 680 0 0 969 c0 635 -4 996 -11 1047 -24 176 -97
356 -199 493 -115 154 -316 316 -492 395 -40 18 -84 38 -98 44 l-25 11 25 7
c14 4 66 28 117 54 305 156 535 426 637 749 90 283 85 676 -10 967 -159 489
-573 798 -1230 919 -326 60 -267 58 -2101 62 l-1683 4 0 -2860z m3442 1598
c118 -25 221 -97 289 -201 79 -124 93 -300 32 -431 -56 -119 -171 -220 -294
-258 -58 -18 -108 -19 -1070 -19 l-1009 0 0 460 0 460 1000 0 c696 0 1015 -3
1052 -11z"/>
<path d="M21520 9995 l0 -2865 2508 2 2507 3 3 653 2 652 -1815 0 -1815 0 0
500 0 500 1635 0 1635 0 0 625 0 625 -1632 2 -1633 3 -3 463 -2 462 1810 0
1810 0 0 620 0 620 -2505 0 -2505 0 0 -2865z"/>
</g>
</svg>
