<?xml version="1.0" standalone="no"?>
<!DOCTYPE svg PUBLIC "-//W3C//DTD SVG 20010904//EN"
 "http://www.w3.org/TR/2001/REC-SVG-20010904/DTD/svg10.dtd">
<svg version="1.0" xmlns="http://www.w3.org/2000/svg"
 width="300.000000pt" height="306.000000pt" viewBox="0 0 300.000000 306.000000"
 preserveAspectRatio="xMidYMid meet">
<metadata>
Created by potrace 1.10, written by Peter Selinger 2001-2011
</metadata>
<g transform="translate(0.000000,306.000000) scale(0.100000,-0.100000)"
fill="#000000" stroke="none">
<path d="M1220 3029 c-533 -111 -970 -502 -1145 -1023 -42 -128 -72 -288 -58
-318 7 -16 14 4 31 93 22 110 79 294 108 351 8 15 14 30 14 33 -1 31 2 37 14
32 17 -7 407 -307 448 -345 24 -22 25 -27 13 -46 -58 -92 -58 -461 0 -552 12
-19 11 -24 -13 -46 -41 -38 -429 -338 -444 -343 -9 -3 -19 15 -31 53 -10 31
-24 71 -31 87 -26 61 -58 172 -78 279 -18 89 -24 105 -32 87 -13 -29 14 -178
54 -301 166 -509 586 -903 1094 -1026 114 -27 256 -42 256 -27 0 8 -35 17
-160 39 -222 40 -461 147 -644 289 -73 57 -199 180 -250 245 -86 108 -156 223
-156 254 0 9 35 41 78 73 42 32 80 62 84 68 4 5 8 7 8 3 0 -3 14 7 31 23 17
16 58 49 92 74 87 64 105 78 122 93 20 18 28 11 61 -55 75 -153 163 -261 298
-362 159 -120 336 -180 536 -182 101 -2 142 2 224 17 52 10 137 39 214 75 81
37 122 48 122 31 0 -4 14 -16 30 -26 17 -9 41 -27 55 -39 13 -12 92 -74 174
-137 83 -63 150 -119 151 -123 0 -14 -34 -44 -112 -96 -186 -124 -350 -187
-613 -236 -109 -21 -139 -34 -74 -35 78 0 229 30 352 71 331 109 586 316 756
614 113 198 193 474 190 660 l-1 60 -9 -50 c-54 -304 -64 -345 -116 -475 -34
-86 -93 -204 -104 -208 -5 -2 -9 -8 -9 -14 0 -6 -13 -27 -30 -48 -16 -21 -30
-40 -30 -43 0 -6 -54 -70 -98 -116 -18 -18 -37 -42 -43 -52 -5 -11 -17 -19
-25 -19 -13 0 -122 77 -144 100 -3 3 -34 28 -70 55 -36 27 -107 82 -158 123
l-93 74 43 27 c110 71 180 170 257 364 17 44 14 85 -8 97 -13 6 -157 10 -400
10 l-380 0 -7 22 c-10 33 -6 500 4 510 6 6 296 9 688 9 631 0 680 -1 691 -18
7 -9 13 -28 13 -42 1 -14 7 -53 15 -86 l15 -60 -5 100 c-2 55 -7 108 -11 118
-6 16 -53 17 -725 17 l-719 0 0 -300 0 -301 410 3 c287 2 410 0 410 -8 0 -25
-52 -160 -81 -211 -18 -31 -62 -87 -98 -126 -109 -115 -226 -184 -392 -228
-122 -33 -359 -34 -472 -1 -317 91 -545 317 -644 639 -25 81 -27 102 -27 253
0 152 2 172 28 255 98 322 338 555 662 641 105 28 322 26 429 -4 105 -30 227
-91 302 -151 l60 -49 219 220 219 219 -35 31 c-112 97 -260 192 -385 246 -153
66 -364 116 -463 110 -46 -3 -44 -4 48 -25 52 -12 112 -24 132 -28 69 -11 243
-72 328 -115 104 -52 274 -164 301 -198 l19 -25 -87 -90 c-182 -186 -287 -287
-300 -287 -7 0 -48 24 -91 54 -152 103 -338 153 -532 143 -249 -13 -444 -102
-616 -279 -93 -96 -130 -148 -186 -259 l-40 -80 -25 16 c-13 9 -32 23 -41 30
-63 51 -116 93 -241 188 -77 60 -141 112 -141 115 0 23 91 168 158 252 232
291 554 481 932 550 58 10 116 23 130 29 46 18 -98 11 -200 -10z"/>
</g>
</svg>
