<?xml version="1.0" standalone="no"?>
<!DOCTYPE svg PUBLIC "-//W3C//DTD SVG 20010904//EN"
 "http://www.w3.org/TR/2001/REC-SVG-20010904/DTD/svg10.dtd">
<svg version="1.0" xmlns="http://www.w3.org/2000/svg"
 width="2008.000000pt" height="2048.000000pt" viewBox="0 0 2008.000000 2048.000000"
 preserveAspectRatio="xMidYMid meet">
<metadata>
Created by potrace 1.16, written by Peter Selinger 2001-2019
</metadata>
<g transform="translate(0.000000,2048.000000) scale(0.100000,-0.100000)"
fill="#000000" stroke="none">
<path d="M9660 20469 c-2314 -135 -4423 -1003 -6190 -2548 -201 -175 -697
-671 -876 -876 -599 -683 -1033 -1318 -1461 -2136 l-40 -75 426 -331 c234
-181 1001 -777 1705 -1322 703 -546 1282 -989 1286 -984 5 4 32 73 61 153 404
1122 1169 2147 2139 2867 714 531 1535 897 2390 1067 1100 220 2273 117 3303
-290 78 -30 250 -109 382 -174 491 -241 847 -485 1323 -906 l54 -47 1464 1464
c805 805 1464 1469 1464 1475 0 21 -329 310 -595 523 -1380 1106 -2994 1803
-4747 2050 -527 75 -942 101 -1528 99 -234 0 -486 -4 -560 -9z"/>
<path d="M15057 12102 l-4827 -2 2 -1983 3 -1982 2756 0 c1834 0 2755 -3 2753
-10 -2 -5 -6 -23 -8 -40 -7 -48 -15 -85 -36 -161 -10 -39 -21 -81 -24 -95 -9
-40 -22 -89 -49 -179 -52 -172 -56 -183 -108 -315 -4 -11 -15 -42 -24 -70 -10
-27 -28 -74 -42 -102 -13 -29 -35 -76 -48 -105 -38 -85 -175 -358 -185 -368
-8 -8 -29 -42 -43 -70 -7 -14 -28 -49 -47 -79 -19 -30 -35 -58 -35 -62 0 -4
-9 -18 -20 -31 -32 -38 -87 -118 -81 -118 5 0 -13 -24 -39 -54 -6 -6 -26 -33
-45 -61 -19 -27 -37 -52 -41 -55 -3 -3 -18 -23 -35 -45 -16 -22 -33 -45 -39
-52 -5 -6 -20 -24 -32 -40 -21 -27 -35 -43 -126 -145 -56 -64 -292 -303 -349
-353 -24 -22 -71 -62 -103 -90 -33 -27 -70 -60 -83 -72 -12 -13 -26 -23 -29
-23 -4 0 -13 -7 -22 -15 -9 -9 -41 -34 -71 -58 -30 -23 -60 -46 -67 -52 -7 -5
-55 -39 -107 -75 -52 -36 -97 -70 -100 -76 -2 -6 88 -83 201 -170 113 -87 273
-212 356 -276 84 -65 224 -174 312 -242 255 -198 481 -374 800 -621 164 -126
355 -275 425 -330 71 -55 193 -149 271 -210 79 -60 169 -130 200 -155 31 -25
71 -56 89 -70 18 -14 137 -106 264 -204 433 -336 395 -309 414 -295 25 20 452
446 452 452 0 3 26 32 58 64 89 92 194 213 277 318 17 20 41 49 54 64 13 14
42 51 65 81 22 30 51 66 64 80 12 14 22 28 22 32 0 4 8 15 18 25 10 10 42 52
72 93 30 41 57 77 60 80 17 15 283 406 336 494 36 60 43 70 77 123 15 24 27
45 27 48 0 3 12 24 27 48 38 58 49 77 69 117 10 19 26 47 35 61 19 27 63 108
135 248 24 46 48 88 53 95 4 6 12 22 16 35 4 12 18 39 31 58 13 20 21 39 18
44 -3 5 0 9 5 9 6 0 11 6 11 12 0 7 23 60 51 118 77 159 168 362 168 375 1 3
7 18 15 34 9 16 12 31 9 35 -4 3 -1 6 5 6 7 0 11 3 10 8 -2 4 14 48 34 97 34
85 49 123 53 135 1 3 9 23 19 45 9 21 18 46 20 55 2 8 6 22 9 30 4 8 18 51 33
95 14 44 32 94 39 110 22 52 45 119 48 140 1 11 5 25 9 30 7 11 32 95 33 110
0 6 3 15 6 20 11 18 64 201 69 237 1 4 6 22 11 40 12 38 12 38 40 143 11 44
23 87 24 95 2 8 4 15 5 15 1 0 3 7 5 16 1 9 15 63 29 120 33 135 66 287 91
424 2 11 11 56 20 100 9 44 22 125 31 180 8 55 17 114 20 130 3 17 7 41 9 55
2 14 6 39 9 55 3 17 8 48 10 70 3 22 12 87 20 145 8 58 14 112 15 120 0 8 5
51 10 95 12 100 20 182 26 265 11 148 16 207 20 250 13 143 20 417 20 810 0
459 -10 792 -30 960 -3 25 -8 77 -11 115 -3 39 -7 84 -8 100 -2 17 -6 66 -10
110 -4 44 -11 108 -17 143 -5 34 -11 79 -14 100 -12 114 -15 139 -20 162 -2
13 -7 42 -10 65 -8 59 -17 117 -21 140 -3 11 -7 38 -9 60 -3 23 -11 70 -18
105 l-12 65 -4828 -3z"/>
</g>
</svg>
