<?xml version="1.0" standalone="no"?>
<!DOCTYPE svg PUBLIC "-//W3C//DTD SVG 20010904//EN"
 "http://www.w3.org/TR/2001/REC-SVG-20010904/DTD/svg10.dtd">
<svg version="1.0" xmlns="http://www.w3.org/2000/svg"
 width="200.000000pt" height="200.000000pt" viewBox="0 0 200.000000 200.000000"
 preserveAspectRatio="xMidYMid meet">

<g transform="translate(0.000000,200.000000) scale(0.100000,-0.100000)"
fill="#000000" stroke="none">
<path d="M311 1455 c-86 -19 -133 -52 -165 -116 -14 -29 -26 -62 -25 -73 0
-12 6 -2 14 22 29 95 106 152 203 152 60 0 102 -15 152 -54 25 -20 22 -16 -8
13 -27 25 -58 43 -80 47 -31 6 -33 8 -17 15 31 12 -3 9 -74 -6z"/>
<path d="M282 1394 c-23 -16 -57 -72 -49 -81 3 -2 8 5 12 16 10 32 63 71 96
71 19 0 39 -10 55 -25 15 -16 35 -24 52 -24 27 2 27 2 2 6 -14 3 -36 16 -49
29 -28 28 -85 32 -119 8z"/>
<path d="M300 1346 c0 -2 7 -7 16 -10 8 -3 12 -2 9 4 -6 10 -25 14 -25 6z"/>
<path d="M265 1329 c-11 -16 -1 -19 13 -3 7 8 8 14 3 14 -5 0 -13 -5 -16 -11z"/>
<path d="M890 1269 c0 -5 5 -7 10 -4 6 3 10 8 10 11 0 2 -4 4 -10 4 -5 0 -10
-5 -10 -11z"/>
<path d="M792 1223 l-2 -43 85 0 85 0 -2 43 c-1 36 -2 38 -5 10 -4 -33 -23
-47 -23 -18 0 10 -11 15 -35 15 -26 0 -33 -3 -29 -15 4 -10 0 -15 -14 -15 -11
0 -23 8 -25 18 -4 16 -5 16 -6 0 -2 -31 -20 -20 -24 15 -3 28 -4 26 -5 -10z
m126 -15 c-7 -19 -38 -22 -38 -4 0 10 9 16 21 16 12 0 19 -5 17 -12z"/>
<path d="M973 1220 c0 -25 2 -35 4 -22 2 12 2 32 0 45 -2 12 -4 2 -4 -23z"/>
<path d="M1620 1230 c0 -32 -16 -41 -23 -12 -4 13 -5 11 -6 -5 -1 -28 -21 -30
-28 -3 -3 11 -13 20 -22 19 -10 0 -11 -2 -3 -6 19 -7 14 -33 -7 -33 -10 0 -21
9 -24 20 -3 13 -13 20 -29 19 -23 -2 -23 -2 0 -6 32 -6 27 -20 -8 -20 -18 0
-31 6 -33 16 -3 10 -5 8 -6 -6 0 -13 -6 -23 -11 -23 -6 0 -14 10 -19 23 -7 19
-9 15 -13 -21 -3 -34 -1 -40 8 -28 9 13 33 16 123 16 l111 0 0 40 c0 22 -2 40
-5 40 -3 0 -5 -13 -5 -30z"/>
<path d="M1643 1220 c0 -25 2 -35 4 -22 2 12 2 32 0 45 -2 12 -4 2 -4 -23z"/>
<path d="M1311 1228 c-1 -33 -17 -45 -24 -18 -7 27 -37 25 -45 -2 l-5 -22 -8
22 c-12 32 -69 31 -70 0 0 -13 -3 -17 -6 -10 -2 6 -9 9 -15 6 -6 -4 -14 -1
-18 6 -5 7 -9 -2 -12 -25 -3 -30 -2 -34 7 -21 10 13 31 16 101 16 49 0 94 4
99 8 6 4 8 20 4 37 -7 30 -7 30 -8 3z m-96 -23 c0 -5 -10 -11 -22 -13 -16 -2
-23 2 -23 13 0 11 7 15 23 13 12 -2 22 -7 22 -13z m65 5 c0 -5 -4 -10 -9 -10
-6 0 -13 5 -16 10 -3 6 1 10 9 10 9 0 16 -4 16 -10z"/>
<path d="M740 1210 c0 -13 -7 -20 -20 -20 -13 0 -18 -5 -14 -15 4 -10 0 -15
-14 -15 -11 0 -23 7 -25 15 -4 11 -4 10 -3 -2 2 -23 44 -30 52 -9 4 10 18 16
38 16 26 1 28 2 14 11 -10 5 -18 14 -18 19 0 5 8 11 18 13 13 4 11 5 -5 6 -17
1 -23 -5 -23 -19z"/>
<path d="M1050 1210 c0 -11 7 -23 15 -26 18 -7 10 -24 -11 -24 -8 0 -19 10
-24 23 -5 13 -9 16 -9 7 -1 -21 19 -40 41 -40 25 0 36 30 15 42 -22 12 -22 25
1 31 13 4 11 5 -5 6 -17 1 -23 -5 -23 -19z"/>
<path d="M461 1205 c-23 -11 -31 -20 -27 -31 8 -20 -18 -68 -46 -88 -24 -17
-83 -22 -92 -8 -2 4 -1 14 5 22 6 10 9 11 9 3 0 -8 14 -13 34 -13 37 0 46 12
46 61 l0 29 -85 0 c-56 0 -85 -4 -85 -11 0 -6 10 -29 22 -50 21 -39 68 -69
107 -69 24 0 87 53 96 81 5 14 15 19 41 19 41 0 42 -9 7 -51 -99 -117 -304
-74 -353 75 -14 42 -32 49 -21 8 13 -42 36 -85 60 -106 12 -11 21 -27 21 -36
0 -17 73 -47 78 -31 1 4 24 4 50 0 60 -10 83 -10 57 0 -16 7 -14 9 16 15 40 7
112 64 133 105 13 24 12 29 -12 58 -26 31 -28 32 -61 18z"/>
<path d="M654 1096 c-3 -8 -4 -25 -2 -38 2 -19 9 -23 43 -24 l40 -1 -37 4
c-33 4 -37 7 -36 33 1 26 5 29 37 33 l36 4 -38 1 c-25 1 -40 -3 -43 -12z"/>
<path d="M1191 1073 c-1 -24 1 -43 3 -43 8 0 12 48 5 66 -5 13 -8 7 -8 -23z"/>
<path d="M1264 1095 c-3 -7 -4 -26 -1 -42 3 -23 4 -22 6 10 0 20 6 37 11 37 6
0 11 -17 11 -37 l2 -38 6 33 c3 18 11 33 16 33 6 0 13 -15 16 -33 l6 -33 2 32
c0 17 -4 35 -11 39 -22 14 -59 13 -64 -1z"/>
<path d="M1442 1098 c-1 -10 -8 -18 -16 -18 -23 0 -30 -20 -12 -38 22 -23 39
-3 33 39 -2 19 -5 26 -5 17z m-2 -44 c0 -9 -5 -14 -12 -12 -18 6 -21 28 -4 28
9 0 16 -7 16 -16z"/>
<path d="M740 1060 c0 -11 8 -24 18 -27 9 -4 20 -11 24 -17 4 -6 8 0 8 13 0
20 2 22 15 11 13 -10 18 -11 28 -1 9 10 8 11 -6 5 -13 -5 -20 -1 -24 15 l-6
22 -14 -21 c-16 -23 -33 -26 -33 -6 0 8 8 17 18 19 13 4 11 5 -5 6 -17 1 -23
-5 -23 -19z"/>
<path d="M852 1055 c0 -16 2 -22 5 -12 2 9 2 23 0 30 -3 6 -5 -1 -5 -18z"/>
<path d="M877 1073 c-4 -3 -7 -19 -7 -35 l0 -29 26 25 c15 13 23 29 20 35 -8
12 -29 15 -39 4z m31 -15 c-6 -18 -28 -21 -28 -4 0 9 7 16 16 16 9 0 14 -5 12
-12z"/>
<path d="M932 1058 c2 -13 10 -23 18 -23 8 0 16 10 18 23 3 17 -2 22 -18 22
-16 0 -21 -5 -18 -22z"/>
<path d="M1002 1074 c9 -3 19 -13 21 -22 4 -15 5 -15 6 1 1 23 19 22 24 -3 4
-17 4 -16 3 2 -1 19 -7 23 -36 25 -19 1 -27 -1 -18 -3z"/>
<path d="M1070 1061 c0 -28 21 -37 36 -16 16 22 10 35 -17 35 -12 0 -19 -7
-19 -19z"/>
<path d="M1130 1072 c0 -4 9 -8 20 -8 11 0 20 4 20 8 0 4 -9 8 -20 8 -11 0
-20 -4 -20 -8z"/>
<path d="M1350 1070 c0 -5 7 -7 15 -4 10 4 15 0 15 -11 0 -12 -5 -15 -17 -10
-14 5 -15 3 -6 -6 15 -15 33 -3 33 22 0 12 -7 19 -20 19 -11 0 -20 -4 -20 -10z"/>
<path d="M1467 1074 c-12 -12 -8 -32 9 -38 8 -3 12 -2 9 4 -3 6 1 10 10 10 9
0 15 6 13 13 -5 14 -31 21 -41 11z m30 -10 c-3 -3 -12 -4 -19 -1 -8 3 -5 6 6
6 11 1 17 -2 13 -5z"/>
<path d="M1524 1065 c-3 -8 -4 -20 -2 -27 3 -7 7 -1 10 15 6 29 1 36 -8 12z"/>
<path d="M1546 1064 c-10 -25 -7 -29 7 -9 8 10 19 15 25 11 7 -4 12 -2 12 3 0
17 -37 13 -44 -5z"/>
<path d="M1605 1070 c-4 -7 1 -19 10 -28 10 -10 15 -11 11 -4 -5 7 -1 12 9 12
21 0 14 24 -7 28 -9 2 -19 -2 -23 -8z"/>
<path d="M110 825 c0 -122 2 -145 15 -145 13 0 15 23 15 145 0 122 -2 145 -15
145 -13 0 -15 -23 -15 -145z"/>
<path d="M570 916 l0 -55 -52 5 c-60 5 -76 -3 -102 -54 -49 -95 78 -179 155
-103 31 32 39 71 14 71 -9 0 -20 -11 -25 -25 -5 -14 -21 -30 -35 -37 -22 -10
-30 -8 -53 9 -15 11 -28 30 -30 42 -2 11 -8 21 -13 21 -5 0 -9 5 -9 12 0 6 3
8 6 5 4 -3 18 3 32 13 32 26 63 25 98 -2 15 -13 24 -16 19 -9 -6 11 -4 13 8 8
15 -6 17 3 17 73 0 64 -3 80 -15 80 -11 0 -15 -13 -15 -54z"/>
<path d="M1130 920 c0 -43 -3 -50 -20 -50 -11 0 -20 -7 -20 -15 0 -8 8 -15 19
-15 11 0 21 -9 24 -21 6 -23 27 -17 27 7 0 9 11 14 30 14 20 0 30 5 30 15 0
10 -10 15 -30 15 -29 0 -30 1 -30 50 0 38 -4 50 -15 50 -11 0 -15 -12 -15 -50z"/>
<path d="M1380 930 c0 -13 7 -20 20 -20 13 0 20 7 20 20 0 13 -7 20 -20 20
-13 0 -20 -7 -20 -20z"/>
<path d="M211 843 c-27 -25 -31 -35 -32 -93 -2 -54 0 -66 14 -68 14 -3 17 6
17 57 0 48 4 65 20 81 25 25 57 25 95 0 17 -11 26 -20 20 -20 -6 0 -9 -24 -7
-60 3 -46 7 -60 19 -60 13 0 15 12 11 71 -3 63 -7 74 -31 95 -39 33 -88 32
-126 -3z"/>
<path d="M630 846 c0 -14 5 -28 11 -31 13 -9 16 -6 24 28 6 23 4 27 -14 27
-16 0 -21 -6 -21 -24z"/>
<path d="M802 838 c4 -44 23 -46 26 -3 2 26 -1 35 -13 35 -12 0 -15 -8 -13
-32z"/>
<path d="M876 849 c-8 -12 -12 -28 -9 -37 5 -13 9 -12 24 6 15 19 27 22 93 22
61 0 76 3 76 15 0 12 -16 15 -84 15 -75 0 -87 -2 -100 -21z"/>
<path d="M1302 854 c-27 -19 -48 -53 -29 -50 24 5 77 41 77 54 0 17 -21 15
-48 -4z"/>
<path d="M1380 775 c0 -88 1 -95 20 -95 18 0 20 7 20 60 0 50 -3 60 -17 61
-11 0 -13 3 -5 6 18 7 16 63 -3 63 -12 0 -15 -17 -15 -95z"/>
<path d="M1479 841 c-42 -42 -41 -99 2 -135 40 -34 88 -34 126 -1 27 23 27 24
6 25 -12 0 -33 -5 -47 -11 -20 -10 -30 -9 -51 5 -41 27 -29 36 50 36 l75 0 0
29 c0 40 -49 81 -97 81 -25 0 -43 -8 -64 -29z m105 -17 c27 -26 18 -34 -39
-34 -41 0 -55 4 -55 15 0 32 67 46 94 19z"/>
<path d="M1260 735 c0 -42 3 -55 15 -55 12 0 15 13 15 55 0 42 -3 55 -15 55
-12 0 -15 -13 -15 -55z"/>
<path d="M630 770 c0 -21 30 -70 49 -80 39 -20 91 -12 122 19 31 32 39 71 14
71 -9 0 -20 -11 -25 -24 -20 -55 -103 -54 -116 0 -6 24 -44 35 -44 14z"/>
<path d="M885 771 c6 -5 37 -11 70 -13 52 -3 60 -6 60 -23 0 -18 -8 -20 -77
-23 -61 -2 -78 -6 -78 -18 0 -12 15 -14 87 -12 83 3 88 4 103 30 27 48 7 63
-91 66 -55 2 -81 0 -74 -7z"/>
<path d="M1130 730 c0 -38 4 -50 15 -50 11 0 15 12 15 50 0 38 -4 50 -15 50
-11 0 -15 -12 -15 -50z"/>
</g>
</svg>
