<?xml version="1.0" standalone="no"?>
<!DOCTYPE svg PUBLIC "-//W3C//DTD SVG 20010904//EN"
 "http://www.w3.org/TR/2001/REC-SVG-20010904/DTD/svg10.dtd">
<svg version="1.0" xmlns="http://www.w3.org/2000/svg"
 width="225.000000pt" height="225.000000pt" viewBox="0 0 225.000000 225.000000"
 preserveAspectRatio="xMidYMid meet">
<metadata>
Created by potrace 1.10, written by Peter Selinger 2001-2011
</metadata>
<g transform="translate(0.000000,225.000000) scale(0.100000,-0.100000)"
fill="#000000" stroke="none">
<path d="M194 1197 c-3 -8 -4 -45 -2 -83 3 -61 5 -69 23 -69 17 0 20 8 23 49
l3 49 35 -34 34 -33 35 34 35 34 0 -53 c0 -48 2 -52 22 -49 21 3 22 8 22 83 0
71 -2 80 -19 84 -13 2 -32 -11 -58 -40 l-37 -44 -36 43 c-35 42 -70 54 -80 29z"/>
<path d="M484 1197 c-3 -8 -4 -45 -2 -83 l3 -69 84 0 c59 0 86 4 89 13 3 9
-14 12 -62 12 -59 0 -66 2 -66 20 0 18 7 20 55 20 42 0 55 3 55 15 0 12 -13
15 -55 15 -48 0 -55 2 -55 20 0 18 7 20 66 20 48 0 65 3 62 13 -7 18 -167 22
-174 4z"/>
<path d="M715 1198 c-3 -8 -5 -46 -3 -84 l3 -69 72 0 c92 0 128 22 128 80 0
55 -35 78 -125 83 -55 3 -71 1 -75 -10z m140 -38 c40 -33 0 -90 -62 -90 l-33
0 0 56 0 57 40 -6 c23 -3 47 -11 55 -17z"/>
<path d="M984 1197 c-3 -8 -4 -45 -2 -83 3 -61 5 -69 23 -69 18 0 20 7 20 80
0 68 -3 80 -18 83 -9 2 -20 -3 -23 -11z"/>
<path d="M1175 1202 c-20 -14 -96 -143 -90 -152 10 -17 34 -11 45 10 15 29 95
28 126 -1 21 -20 54 -21 54 -2 0 4 -22 39 -48 78 -45 68 -66 83 -87 67z m38
-64 l17 -28 -35 0 -36 0 16 31 c9 17 18 29 19 27 1 -1 10 -15 19 -30z"/>
<path d="M1364 1197 c-3 -8 -4 -45 -2 -83 3 -61 5 -69 23 -69 17 0 20 8 23 54
l3 54 58 -57 c81 -80 96 -76 96 29 0 73 -2 80 -20 80 -17 0 -20 -8 -23 -47 -2
-27 -6 -48 -10 -48 -4 1 -29 23 -57 50 -50 50 -81 62 -91 37z"/>
<path d="M1624 1197 c-3 -8 -4 -45 -2 -83 l3 -69 84 0 c59 0 86 4 89 13 3 9
-14 12 -62 12 -59 0 -66 2 -66 20 0 18 7 20 55 20 42 0 55 3 55 15 0 12 -13
15 -55 15 -48 0 -55 2 -55 20 0 18 7 20 66 20 48 0 65 3 62 13 -7 18 -167 22
-174 4z"/>
<path d="M1857 1204 c-16 -16 -5 -24 33 -24 l39 0 3 -67 c3 -60 5 -68 23 -68
18 0 20 8 23 67 l3 67 37 3 c20 2 36 8 35 13 -3 11 -185 19 -196 9z"/>
<path d="M200 30 c0 -35 12 -38 40 -10 10 10 22 15 24 11 3 -5 86 -9 185 -10
137 -2 181 1 187 11 6 9 10 6 15 -12 6 -20 7 -21 8 -5 1 19 7 20 226 17 168
-2 225 -6 225 -15 0 -8 3 -7 9 2 7 11 48 14 219 12 138 -2 218 1 231 9 18 9
21 8 21 -11 0 -19 2 -20 17 -8 12 11 59 14 202 14 161 0 189 -2 211 -18 34
-24 40 -22 40 13 l0 30 -930 0 -930 0 0 -30z"/>
</g>
</svg>
