<?xml version="1.0" standalone="no"?>
<!DOCTYPE svg PUBLIC "-//W3C//DTD SVG 20010904//EN"
 "http://www.w3.org/TR/2001/REC-SVG-20010904/DTD/svg10.dtd">
<svg version="1.0" xmlns="http://www.w3.org/2000/svg"
 width="632.000000pt" height="671.000000pt" viewBox="0 0 632.000000 671.000000"
 preserveAspectRatio="xMidYMid meet">

<g transform="translate(0.000000,671.000000) scale(0.100000,-0.100000)"
fill="#000000" stroke="none">
<path d="M0 3350 l0 -3350 3155 0 3155 0 0 3350 0 3350 -3155 0 -3155 0 0
-3350z m2637 1900 c216 -300 422 -584 457 -633 l63 -87 459 635 459 635 668 0
667 0 0 -455 0 -455 -175 0 -175 0 0 -700 0 -700 175 0 175 0 0 -455 0 -455
-850 0 -850 0 0 455 0 455 185 0 185 0 0 452 c0 380 -2 450 -13 438 -8 -8
-202 -271 -432 -585 -230 -313 -433 -589 -451 -613 l-32 -42 -438 602 c-241
332 -446 614 -456 627 -17 23 -18 11 -18 -428 l0 -451 180 0 180 0 0 -455 0
-455 -845 0 -845 0 0 455 0 455 170 0 170 0 0 700 0 700 -170 0 -170 0 0 455
0 455 667 -2 667 -3 393 -545z m748 -3134 c26 -11 36 -12 42 -3 9 16 21 -25
22 -80 1 -51 -11 -55 -29 -12 -14 34 -63 69 -95 69 -31 0 -65 -28 -65 -55 0
-30 36 -58 95 -75 91 -25 133 -98 101 -173 -23 -55 -68 -79 -142 -75 -45 3
-71 10 -98 28 -32 22 -36 30 -36 68 0 49 13 54 35 13 35 -68 121 -95 165 -51
42 42 17 79 -83 120 -98 40 -130 107 -87 178 34 56 107 76 175 48z m1543 3
c71 -15 127 -66 147 -131 28 -95 13 -162 -49 -224 -72 -72 -169 -81 -258 -25
-65 41 -91 100 -86 190 6 105 56 168 153 192 43 10 39 10 93 -2z m-3840 -11
c-3 -7 -14 -14 -26 -16 -30 -5 -35 -32 -31 -160 5 -119 18 -154 67 -173 38
-15 95 4 118 39 16 23 19 48 19 156 0 129 0 130 -24 136 -14 3 -26 11 -29 18
-3 9 18 12 77 12 65 0 81 -3 81 -15 0 -8 -9 -15 -20 -15 -25 0 -28 -16 -33
-156 -4 -125 -18 -162 -77 -201 -47 -32 -143 -32 -191 0 -57 38 -69 75 -69
212 0 124 -3 137 -32 148 -10 3 -18 11 -18 17 0 6 37 10 96 10 72 0 95 -3 92
-12z m429 -25 c15 -21 61 -80 103 -131 l75 -94 3 94 c4 118 -1 136 -35 140
-14 2 -28 9 -31 16 -3 9 17 12 77 12 62 0 81 -3 81 -14 0 -7 -8 -16 -18 -18
-16 -4 -20 -19 -25 -83 -4 -43 -7 -127 -7 -187 0 -82 -3 -108 -13 -108 -7 0
-68 68 -135 151 l-122 151 0 -127 0 -126 30 -10 c52 -18 33 -29 -50 -29 -81 0
-98 7 -57 25 21 10 22 15 25 172 l2 162 -25 7 c-14 3 -25 12 -25 20 0 10 15
14 59 14 58 0 61 -1 88 -37z m483 23 c0 -7 -9 -16 -20 -19 -19 -5 -20 -14 -20
-170 0 -157 1 -166 20 -172 44 -14 15 -25 -65 -25 -87 0 -104 8 -60 28 l25 12
0 152 c0 84 -4 158 -8 164 -4 6 -15 13 -24 17 -43 15 -14 27 67 27 66 0 85 -3
85 -14z m230 -1 c0 -9 -9 -15 -25 -15 -19 0 -25 -5 -25 -22 0 -32 76 -243 83
-232 18 30 87 229 83 240 -3 8 -15 14 -26 14 -11 0 -20 7 -20 15 0 12 14 15
70 15 73 0 93 -15 48 -35 -17 -8 -42 -55 -98 -190 -44 -105 -82 -181 -90 -183
-11 -2 -32 43 -74 160 -70 192 -82 218 -101 218 -8 0 -15 7 -15 15 0 12 17 15
95 15 78 0 95 -3 95 -15z m510 -35 c0 -27 -4 -50 -10 -50 -5 0 -10 6 -10 14 0
25 -42 46 -92 46 l-48 0 0 -70 c0 -66 1 -70 23 -70 39 0 66 12 72 31 13 40 25
16 25 -51 0 -70 -12 -93 -24 -45 -6 22 -12 25 -52 25 l-45 0 3 -67 3 -68 49
-3 c69 -4 95 4 102 33 3 14 12 25 20 25 16 0 17 -8 8 -62 l-7 -38 -153 0 c-85
0 -154 4 -154 8 0 5 11 14 25 20 l25 12 0 160 0 160 -25 10 c-57 22 -23 30
120 30 l145 0 0 -50z m352 11 c26 -29 30 -39 25 -75 -4 -30 -15 -50 -40 -72
l-34 -31 47 -79 c25 -43 56 -83 68 -89 34 -15 26 -25 -22 -25 -58 0 -88 26
-132 111 -25 51 -39 69 -55 69 -18 0 -20 -5 -17 -67 3 -59 6 -69 26 -78 41
-18 23 -25 -68 -25 -92 0 -110 8 -65 28 l25 12 0 160 0 160 -25 10 c-14 5 -25
14 -25 21 0 7 40 10 131 7 l131 -3 30 -34z m568 29 c0 -6 -8 -14 -17 -17 -10
-4 -21 -11 -25 -17 -4 -6 -8 -77 -8 -158 0 -120 3 -149 16 -162 8 -9 20 -16
25 -16 5 0 9 -4 9 -10 0 -6 -35 -10 -85 -10 -50 0 -85 4 -85 10 0 6 4 10 9 10
5 0 17 7 25 16 13 13 16 41 16 155 0 140 -8 179 -35 179 -8 0 -15 7 -15 15 0
12 16 15 85 15 52 0 85 -4 85 -10z m405 -47 c0 -50 -16 -74 -24 -36 -6 33 -23
43 -72 43 l-49 0 0 -160 0 -160 25 -10 c14 -5 25 -12 25 -15 0 -3 -38 -5 -85
-5 -80 0 -111 11 -65 23 19 5 20 14 20 166 l0 161 -51 0 c-48 0 -51 -1 -65
-36 -22 -52 -38 -31 -29 35 l7 51 181 -2 182 -3 0 -52z m243 45 c-3 -7 -17
-14 -31 -16 -36 -4 -34 -22 9 -94 l36 -60 34 61 c39 70 42 91 14 91 -11 0 -20
7 -20 15 0 12 16 15 80 15 83 0 99 -10 53 -32 -17 -8 -49 -47 -80 -97 -52 -82
-53 -86 -53 -158 0 -74 0 -75 30 -86 17 -6 30 -15 30 -19 0 -4 -45 -8 -100 -8
-95 0 -127 10 -77 26 31 10 37 22 37 82 0 48 -6 61 -65 152 -41 64 -74 104
-90 110 -53 20 -25 30 86 30 84 0 110 -3 107 -12z m1095 -35 c7 -59 -6 -75
-27 -35 -17 32 -39 42 -103 42 l-43 0 0 -70 0 -70 45 0 c39 0 47 4 57 25 19
42 28 28 28 -45 0 -67 -13 -92 -27 -52 -9 25 -23 32 -65 32 l-38 0 0 -76 c0
-67 2 -76 20 -81 11 -3 20 -12 20 -20 0 -11 -16 -13 -82 -11 -82 3 -114 19
-63 32 l25 7 -2 167 c-3 165 -3 167 -25 170 -23 3 -29 13 -16 25 3 4 70 7 148
7 l142 0 6 -47z m-844 -620 c76 -244 151 -456 167 -474 11 -12 30 -19 53 -19
67 0 66 -6 69 260 l4 241 -41 17 c-26 11 -41 24 -41 35 0 15 11 17 89 17 l89
0 28 -37 c15 -21 86 -112 158 -203 l131 -164 3 44 c2 25 2 100 0 168 -3 136
-11 152 -70 152 -21 0 -28 5 -28 20 0 19 7 20 120 20 113 0 120 -1 120 -20 0
-15 -7 -20 -25 -20 -13 0 -29 -8 -34 -18 -5 -10 -13 -141 -17 -290 -7 -253 -8
-272 -25 -272 -12 0 -85 83 -201 227 l-183 226 -3 -183 c-3 -203 -2 -206 59
-219 20 -4 35 -14 37 -24 3 -16 -17 -17 -258 -17 -243 0 -261 1 -258 17 2 11
15 20 33 23 35 6 43 34 26 92 l-12 38 -103 0 -104 0 -10 -27 c-28 -74 -23 -91
29 -102 20 -4 35 -14 37 -24 3 -15 -9 -17 -127 -17 -111 0 -131 2 -131 15 0
16 5 19 53 30 21 4 33 17 47 48 28 62 170 458 170 471 0 10 85 59 112 64 4 1
21 -42 37 -95z m-2148 77 c20 -6 53 -21 72 -34 32 -22 37 -23 56 -10 20 15 21
14 21 -23 0 -21 3 -62 6 -90 6 -48 5 -53 -13 -53 -12 0 -25 11 -32 26 -48 106
-154 158 -244 120 -41 -17 -91 -73 -108 -123 -21 -59 -17 -179 7 -233 63 -138
223 -173 324 -69 25 26 43 37 54 33 26 -10 19 -31 -25 -79 -61 -66 -117 -90
-214 -89 -129 0 -213 50 -264 157 -55 113 -48 240 17 347 29 47 103 104 156
119 43 13 143 13 187 1z m1613 -23 c56 -26 60 -26 78 -10 18 16 19 14 16 -82
-2 -64 -7 -100 -15 -102 -6 -2 -15 6 -19 19 -25 82 -108 147 -187 148 -120 0
-195 -116 -185 -288 10 -170 115 -261 241 -211 38 16 61 62 52 108 -9 46 -21
61 -51 61 -17 0 -24 6 -24 20 0 19 7 20 120 20 108 0 120 -2 120 -18 0 -9 -10
-22 -22 -27 -21 -9 -23 -18 -26 -91 l-3 -80 -54 -27 c-75 -36 -167 -51 -238
-38 -77 14 -127 42 -175 96 -141 161 -79 449 111 519 67 25 189 17 261 -17z
m-2831 -159 c41 -101 83 -202 92 -226 10 -24 21 -40 25 -35 4 4 51 106 105
226 l98 217 93 0 c85 0 94 -2 94 -19 0 -12 -11 -21 -32 -27 l-33 -10 -3 -237
c-1 -147 2 -245 8 -257 5 -10 20 -20 32 -22 13 -2 24 -11 26 -20 3 -16 -8 -18
-133 -18 -125 0 -136 2 -133 18 2 10 14 18 31 20 42 5 48 35 45 229 l-3 175
-102 -223 c-96 -211 -104 -224 -131 -227 -28 -3 -29 -1 -115 210 -48 117 -92
220 -97 228 -6 10 -10 -51 -10 -176 0 -201 3 -214 47 -214 16 0 23 -6 23 -20
0 -19 -7 -20 -105 -20 -98 0 -105 1 -105 20 0 15 7 20 25 20 13 0 29 8 34 18
5 9 12 122 16 249 8 245 6 263 -36 263 -21 0 -33 15 -24 30 3 6 48 10 99 10
l94 0 75 -182z m817 162 c0 -13 -7 -20 -19 -20 -48 0 -51 -15 -51 -269 0 -250
1 -254 45 -263 11 -2 21 -11 23 -21 3 -15 -9 -17 -128 -17 -119 0 -131 2 -128
17 2 9 14 20 28 23 44 10 50 40 49 245 0 244 -4 267 -47 280 -30 9 -40 24 -25
38 3 4 62 7 130 7 116 0 123 -1 123 -20z m870 1 c0 -13 -10 -21 -34 -25 -19
-4 -37 -14 -40 -22 -3 -9 -6 -56 -6 -105 l0 -89 141 0 141 0 -4 96 c-4 104
-15 124 -65 124 -16 0 -23 6 -23 20 0 19 7 20 135 20 128 0 135 -1 135 -20 0
-13 -7 -20 -19 -20 -48 0 -51 -16 -51 -264 0 -243 3 -260 45 -268 11 -2 21
-11 23 -21 3 -15 -9 -17 -133 -17 -124 0 -136 2 -133 17 2 11 15 20 33 23 44
8 56 40 53 145 l-3 90 -137 3 -138 3 0 -103 c0 -57 4 -109 9 -116 4 -7 21 -16
37 -21 16 -4 30 -15 32 -24 3 -15 -10 -17 -127 -17 -121 0 -131 1 -131 19 0
12 9 20 29 24 28 6 30 10 36 70 4 35 5 145 3 244 -3 188 -9 213 -49 213 -12 0
-19 7 -19 20 0 19 7 20 130 20 121 0 130 -1 130 -19z m680 -1 c0 -13 -7 -20
-19 -20 -48 0 -51 -16 -51 -261 0 -140 4 -238 10 -250 6 -11 21 -19 35 -19 18
0 25 -5 25 -20 0 -19 -7 -20 -131 -20 -119 0 -130 2 -127 18 2 9 13 18 26 20
47 7 52 31 52 248 0 247 -2 262 -46 280 -33 14 -41 24 -27 37 3 4 62 7 130 7
116 0 123 -1 123 -20z"/>
<path d="M4818 2053 c-47 -52 -61 -139 -34 -216 39 -107 140 -120 189 -24 39
76 19 214 -37 252 -35 25 -89 19 -118 -12z"/>
<path d="M2930 2005 l0 -75 29 0 c15 0 40 9 55 21 55 43 18 129 -55 129 l-29
0 0 -75z"/>
<path d="M4407 1282 c-20 -59 -37 -110 -37 -114 0 -5 36 -8 81 -8 61 0 80 3
77 13 -3 6 -20 55 -38 107 -18 52 -36 98 -39 102 -3 4 -23 -41 -44 -100z"/>
</g>
</svg>
