<?xml version="1.0" standalone="no"?>
<!DOCTYPE svg PUBLIC "-//W3C//DTD SVG 20010904//EN"
 "http://www.w3.org/TR/2001/REC-SVG-20010904/DTD/svg10.dtd">
<svg version="1.0" xmlns="http://www.w3.org/2000/svg"
 width="225.000000pt" height="225.000000pt" viewBox="0 0 225.000000 225.000000"
 preserveAspectRatio="xMidYMid meet">

<g transform="translate(0.000000,225.000000) scale(0.100000,-0.100000)"
fill="#000000" stroke="none">
<path d="M1550 1579 c-49 -13 -110 -41 -110 -49 0 -10 42 -113 50 -123 4 -4
24 0 46 9 59 25 166 22 232 -6 74 -32 147 -114 169 -190 l17 -57 33 46 c39 54
40 63 12 135 -61 164 -283 280 -449 235z"/>
<path d="M1560 1411 c-43 -13 -91 -41 -86 -50 3 -5 -17 -11 -44 -15 -39 -5
-50 -11 -50 -24 0 -10 4 -22 10 -28 6 -6 2 -24 -11 -52 -12 -24 -20 -44 -18
-46 2 -2 37 12 77 31 92 44 167 53 246 28 95 -30 185 -127 201 -216 6 -31 10
-35 30 -31 20 3 24 10 23 43 0 35 -3 39 -25 39 -23 0 -23 1 -7 17 25 26 14
129 -20 187 -52 89 -220 149 -326 117z m-115 -98 c-11 -3 -25 -9 -32 -15 -7
-5 -13 -5 -17 0 -9 15 5 22 38 21 21 -1 25 -3 11 -6z m172 -29 c-3 -3 -12 -4
-19 -1 -8 3 -5 6 6 6 11 1 17 -2 13 -5z"/>
<path d="M370 1275 c0 -8 2 -15 4 -15 2 0 6 7 10 15 3 8 1 15 -4 15 -6 0 -10
-7 -10 -15z"/>
<path d="M162 1260 c0 -14 2 -19 5 -12 2 6 2 18 0 25 -3 6 -5 1 -5 -13z"/>
<path d="M901 1264 c0 -11 3 -14 6 -6 3 7 2 16 -1 19 -3 4 -6 -2 -5 -13z"/>
<path d="M521 1234 c0 -11 3 -14 6 -6 3 7 2 16 -1 19 -3 4 -6 -2 -5 -13z"/>
<path d="M591 1234 c0 -11 3 -14 6 -6 3 7 2 16 -1 19 -3 4 -6 -2 -5 -13z"/>
<path d="M1577 1244 c-4 -4 -7 -16 -7 -26 0 -24 -27 -23 -35 2 -9 29 -35 25
-35 -4 0 -31 -14 -40 -30 -21 -22 27 -42 18 -35 -15 7 -33 4 -35 -26 -20 -29
16 -43 2 -25 -25 19 -28 12 -36 -25 -28 -33 6 -41 -15 -14 -37 23 -19 18 -30
-15 -30 -34 0 -39 -14 -10 -30 27 -14 25 -24 -7 -39 -27 -12 -27 -13 -9 -27
10 -7 24 -16 30 -18 6 -3 2 -12 -11 -22 -30 -21 -29 -34 1 -34 31 0 44 -20 22
-32 -9 -5 -16 -16 -16 -25 0 -12 7 -14 29 -10 37 8 44 0 25 -28 -18 -27 -4
-41 25 -25 30 15 34 13 28 -20 -6 -25 -3 -30 14 -30 11 0 22 7 25 15 9 21 24
8 24 -21 0 -30 23 -31 43 -1 l15 22 11 -27 c6 -16 15 -28 21 -28 6 0 15 12 21
28 l11 27 15 -22 c20 -30 43 -29 43 1 0 29 15 42 24 21 3 -8 13 -15 21 -15 12
0 16 8 13 28 -3 28 7 32 45 17 13 -5 17 -2 17 13 0 12 -5 24 -10 27 -18 11 0
25 25 19 28 -7 40 9 20 26 -23 19 -18 40 9 40 33 0 42 16 16 30 -25 14 -26 27
0 35 11 3 20 12 20 20 0 7 -9 15 -20 18 -26 7 -26 23 0 37 26 14 17 30 -16 30
-27 0 -31 14 -9 37 20 20 9 36 -20 29 -25 -6 -43 8 -25 19 17 10 12 48 -5 41
-8 -3 -22 -9 -30 -12 -11 -5 -15 1 -15 25 0 33 -23 44 -34 15 -8 -22 -26 -7
-26 22 0 29 -25 32 -40 4 -14 -26 -28 -25 -32 2 -3 22 -19 33 -31 22z m109
-73 c51 -23 61 -38 40 -59 -15 -15 -18 -15 -45 1 -50 29 -111 32 -166 8 -42
-19 -51 -20 -63 -7 -8 8 -11 19 -7 26 15 24 90 50 145 50 32 0 72 -8 96 -19z
m-245 -67 c11 -13 10 -21 -7 -51 -10 -20 -21 -62 -24 -92 -5 -52 -7 -56 -30
-56 -20 0 -26 6 -28 29 -5 41 15 115 41 153 25 37 30 39 48 17z m123 -37 l-6
-54 30 0 30 0 -5 54 c-5 48 -4 53 14 53 22 0 84 -39 90 -56 2 -6 -19 -21 -47
-34 -45 -21 -49 -25 -35 -40 8 -9 15 -25 15 -35 0 -10 -7 -26 -15 -35 -14 -15
-10 -19 35 -40 28 -13 49 -28 47 -34 -6 -17 -68 -56 -90 -56 -18 0 -19 5 -14
54 l5 53 -29 -1 -30 -1 7 -52 c6 -48 5 -53 -13 -53 -22 0 -84 39 -90 55 -2 6
17 21 42 33 42 20 44 23 34 46 -13 28 -4 76 13 76 9 0 9 -3 0 -12 -18 -18 -14
-53 9 -74 19 -17 23 -17 47 -3 37 20 41 62 8 84 -14 9 -30 14 -35 11 -13 -9
-122 46 -118 59 5 16 68 55 89 55 16 0 17 -6 12 -53z m236 -7 c40 -78 38 -164
-3 -158 -19 3 -23 11 -27 58 -3 30 -15 71 -26 91 -20 34 -21 38 -6 53 19 19
35 8 62 -44z m-305 -84 c17 -13 28 -26 25 -29 -3 -2 -23 -16 -45 -30 -45 -30
-55 -24 -55 35 0 74 10 77 75 24z m264 -21 c0 -16 -3 -38 -7 -47 -6 -16 -11
-15 -49 10 -24 15 -43 32 -43 37 0 6 19 22 43 37 38 25 43 26 49 10 4 -9 7
-30 7 -47z m-143 20 c13 -21 14 -28 4 -41 -16 -19 -49 -15 -64 8 -8 13 -6 22
8 37 25 27 32 26 52 -4z m-181 -118 c11 -17 34 -41 52 -53 18 -12 30 -24 28
-26 -3 -3 25 -4 63 -4 80 2 125 24 161 79 13 20 29 37 35 37 22 0 37 -17 30
-33 -3 -9 -11 -14 -17 -10 -6 3 -7 1 -3 -5 12 -19 -35 -71 -88 -97 -72 -36
-154 -35 -221 4 -59 34 -80 55 -70 72 6 8 10 7 16 -2 7 -11 9 -10 9 4 0 9 -5
17 -11 17 -5 0 -7 4 -4 10 3 6 -1 7 -10 3 -12 -4 -13 -8 -5 -13 9 -5 9 -9 1
-14 -6 -4 -16 4 -23 19 -10 22 -9 28 3 36 23 14 33 10 54 -24z"/>
<path d="M1510 1163 c0 -19 21 -27 33 -13 9 10 9 11 -2 5 -8 -4 -17 -2 -22 6
-6 9 -9 10 -9 2z"/>
<path d="M1640 1161 c0 -5 5 -13 10 -16 6 -3 10 -2 10 4 0 5 -4 13 -10 16 -5
3 -10 2 -10 -4z"/>
<path d="M1476 1152 c-2 -4 -1 -14 5 -22 6 -11 9 -12 9 -2 0 8 5 10 13 6 8 -5
8 -2 -2 9 -15 19 -18 20 -25 9z"/>
<path d="M1680 1144 c0 -8 5 -12 10 -9 6 4 8 11 5 16 -9 14 -15 11 -15 -7z"/>
<path d="M1748 812 c3 -9 1 -13 -4 -9 -6 3 -16 2 -24 -4 -12 -7 -10 -9 7 -9
12 0 27 8 32 18 7 14 6 19 -4 19 -7 0 -11 -7 -7 -15z"/>
<path d="M1450 810 c0 -5 5 -10 11 -10 5 0 7 5 4 10 -3 6 -8 10 -11 10 -2 0
-4 -4 -4 -10z"/>
<path d="M1469 773 c-13 -17 -13 -17 6 -3 11 8 22 16 24 17 2 2 0 3 -6 3 -6 0
-17 -8 -24 -17z"/>
<path d="M1670 773 c0 -19 21 -27 33 -13 9 10 9 11 -2 5 -8 -4 -17 -2 -22 6
-6 9 -9 10 -9 2z"/>
<path d="M1508 753 c7 -3 16 -2 19 1 4 3 -2 6 -13 5 -11 0 -14 -3 -6 -6z"/>
<path d="M1540 751 c0 -5 7 -11 15 -15 8 -3 15 -1 15 3 0 5 -7 11 -15 15 -8 3
-15 1 -15 -3z"/>
<path d="M1588 733 c7 -3 16 -2 19 1 4 3 -2 6 -13 5 -11 0 -14 -3 -6 -6z"/>
<path d="M43 1223 c-22 -4 -23 -8 -23 -114 0 -102 1 -109 20 -109 17 0 20 7
20 45 0 38 3 45 20 45 14 0 27 -14 42 -45 14 -29 29 -45 40 -45 22 0 22 -2 -1
51 -20 43 -20 44 0 62 24 23 25 69 0 91 -20 18 -79 28 -118 19z m95 -62 c4
-28 -12 -41 -50 -41 -25 0 -28 3 -28 36 0 35 1 35 38 32 30 -2 38 -7 40 -27z"/>
<path d="M400 1180 c0 -11 -4 -20 -10 -20 -5 0 -10 -7 -10 -15 0 -8 5 -15 10
-15 6 0 10 -27 10 -60 0 -54 2 -62 24 -72 14 -6 32 -8 40 -5 24 9 19 35 -6 39
-20 3 -23 10 -26 51 -3 45 -2 47 22 47 16 0 26 6 26 15 0 9 -9 15 -21 15 -12
0 -23 8 -26 20 -3 11 -12 20 -19 20 -8 0 -14 -9 -14 -20z"/>
<path d="M1140 1185 c0 -9 -7 -18 -15 -21 -8 -4 -15 -12 -15 -20 0 -8 7 -14
15 -14 12 0 15 -13 15 -59 0 -64 13 -85 52 -79 30 4 30 32 1 36 -20 3 -23 9
-23 53 0 46 2 49 25 49 16 0 25 6 25 15 0 9 -9 15 -25 15 -18 0 -25 5 -25 20
0 11 -7 20 -15 20 -8 0 -15 -7 -15 -15z"/>
<path d="M260 1163 c-36 -13 -50 -36 -50 -83 0 -57 15 -79 60 -86 56 -9 85 20
85 85 0 32 -6 55 -15 64 -18 17 -59 27 -80 20z m58 -80 c2 -33 -1 -44 -17 -52
-28 -15 -49 -4 -56 29 -9 42 10 72 43 68 24 -3 27 -8 30 -45z"/>
<path d="M538 1163 c-45 -7 -34 -31 14 -35 56 -4 60 -24 6 -35 -34 -7 -45 -14
-52 -35 -16 -44 13 -68 77 -63 l52 3 3 64 c4 87 -21 112 -100 101z m62 -112
c0 -22 -37 -38 -52 -23 -17 17 -1 42 27 42 18 0 25 -5 25 -19z"/>
<path d="M836 1161 c-49 -10 -44 -31 8 -31 61 0 65 -27 5 -36 -52 -9 -70 -40
-46 -78 15 -22 22 -24 69 -21 l53 3 3 64 c4 87 -21 114 -92 99z m54 -110 c0
-22 -37 -38 -52 -23 -17 17 -1 42 27 42 18 0 25 -5 25 -19z"/>
<path d="M1003 1160 c-29 -12 -43 -40 -43 -87 0 -44 6 -55 39 -72 29 -16 91
-6 91 15 0 11 -10 14 -37 12 -32 -3 -39 1 -50 24 -9 19 -10 34 -3 52 8 22 16
26 50 26 29 0 40 4 40 15 0 8 -6 15 -12 15 -7 0 -22 2 -33 5 -11 2 -30 0 -42
-5z"/>
<path d="M680 1079 c0 -72 2 -79 20 -79 18 0 20 7 20 60 0 55 2 60 25 66 42
11 30 31 -20 32 l-45 0 0 -79z"/>
<path d="M1948 1008 c-39 -10 -52 -28 -20 -28 10 0 28 -8 41 -17 14 -9 67 -31
120 -50 53 -18 81 -31 62 -28 -19 3 -73 21 -120 41 -103 43 -126 46 -126 20 0
-42 259 -101 281 -64 10 16 -47 62 -128 104 -37 19 -69 34 -70 33 -2 -1 -20
-6 -40 -11z"/>
</g>
</svg>
