<?xml version="1.0" standalone="no"?>
<!DOCTYPE svg PUBLIC "-//W3C//DTD SVG 20010904//EN"
 "http://www.w3.org/TR/2001/REC-SVG-20010904/DTD/svg10.dtd">
<svg version="1.0" xmlns="http://www.w3.org/2000/svg"
 width="4500.000000pt" height="4500.000000pt" viewBox="0 0 4500.000000 4500.000000"
 preserveAspectRatio="xMidYMid meet">

<g transform="translate(0.000000,4500.000000) scale(0.100000,-0.100000)"
fill="#000000" stroke="none">
<path d="M20700 37283 c-186 -12 -347 -27 -475 -44 -1298 -167 -2504 -722
-3485 -1605 -735 -662 -1298 -1469 -1668 -2396 -120 -299 -261 -768 -312
-1033 -19 -100 -59 -211 -99 -272 -69 -107 -140 -161 -343 -261 -531 -263
-956 -567 -1363 -976 -272 -273 -467 -511 -668 -817 -765 -1162 -1024 -2574
-721 -3939 168 -757 508 -1465 997 -2075 147 -183 361 -414 432 -465 19 -14
20 -27 21 -225 0 -178 4 -226 23 -315 150 -702 684 -1207 1396 -1321 125 -20
388 -15 526 9 529 95 970 427 1211 912 189 382 219 846 81 1260 -184 553 -655
975 -1228 1099 -371 81 -754 32 -1095 -139 l-79 -40 -74 88 c-458 539 -745
1205 -834 1932 -24 200 -24 609 0 810 89 734 379 1400 856 1965 98 116 316
329 453 443 222 184 432 318 741 473 241 121 340 181 477 292 302 242 538 587
665 970 18 56 52 185 75 287 100 447 216 779 406 1159 249 499 544 911 929
1296 1073 1073 2563 1593 4064 1419 1554 -179 2911 -1069 3696 -2424 87 -149
229 -441 294 -602 28 -71 90 -242 136 -380 161 -477 336 -768 631 -1047 327
-309 712 -500 1179 -583 114 -20 163 -22 970 -28 899 -8 941 -10 1210 -61
1124 -211 2079 -928 2594 -1948 548 -1086 515 -2388 -89 -3436 -167 -292 -343
-519 -594 -771 -197 -196 -330 -308 -531 -443 -560 -378 -1155 -580 -1835
-621 -122 -8 -1478 -10 -4440 -8 -4079 3 -4268 4 -4340 22 -203 49 -336 105
-482 202 -251 167 -446 423 -538 705 -90 276 -86 578 11 856 172 489 611 835
1131 892 66 8 784 11 2206 11 l2108 0 18 -37 c53 -113 173 -272 305 -404 245
-245 507 -386 851 -460 91 -20 134 -23 320 -23 241 0 329 13 530 80 655 217
1108 820 1137 1514 30 725 -415 1387 -1103 1639 -117 42 -292 79 -438 92 -374
32 -777 -82 -1096 -309 -181 -129 -375 -346 -482 -539 l-40 -73 -2111 0
c-1287 0 -2169 -4 -2257 -10 -884 -61 -1676 -520 -2165 -1255 -537 -808 -620
-1828 -222 -2722 138 -310 319 -567 586 -834 235 -234 429 -375 714 -520 292
-148 556 -230 927 -286 108 -16 392 -18 4470 -21 3111 -2 4402 0 4520 8 1458
98 2774 786 3687 1927 619 774 988 1688 1095 2713 17 167 17 782 0 950 -114
1094 -523 2054 -1227 2876 -759 887 -1860 1509 -3016 1704 -364 61 -392 62
-1304 70 -832 6 -841 7 -915 29 -214 64 -380 199 -479 390 -21 42 -56 130 -76
196 -170 547 -448 1134 -769 1620 -1112 1684 -2920 2726 -4956 2855 -147 9
-613 11 -730 3z m5895 -9778 c116 -31 202 -82 301 -180 76 -75 98 -104 133
-176 55 -115 74 -207 68 -334 -12 -278 -191 -518 -459 -612 -99 -35 -266 -43
-371 -18 -141 34 -279 120 -369 230 -337 414 -97 1023 437 1109 51 8 197 -3
260 -19z m-11705 -3670 c282 -102 461 -350 462 -640 1 -121 -18 -199 -74 -312
-106 -218 -328 -360 -578 -370 -264 -12 -496 119 -625 352 -59 107 -80 193
-79 330 0 104 4 131 28 200 79 232 250 393 480 456 106 29 283 22 386 -16z"/>
<path d="M28650 17764 c-19 -2 -78 -9 -130 -15 -447 -50 -829 -241 -1092 -545
-313 -362 -468 -859 -468 -1499 0 -671 180 -1214 519 -1567 123 -129 236 -213
391 -292 277 -140 542 -196 932 -196 567 0 967 136 1292 440 231 216 400 581
433 932 l6 68 -394 0 -394 0 -17 -65 c-45 -171 -120 -307 -233 -421 -68 -69
-97 -89 -185 -133 -166 -81 -229 -94 -460 -95 -157 -1 -211 3 -275 18 -274 63
-472 209 -613 451 -243 416 -254 1221 -25 1680 127 253 358 429 651 496 117
26 325 35 444 19 308 -41 500 -175 643 -448 46 -89 122 -162 203 -193 54 -22
73 -23 356 -27 l299 -4 -7 74 c-10 109 -53 290 -97 406 -186 497 -569 791
-1164 893 -91 15 -176 21 -350 24 -126 2 -246 1 -265 -1z"/>
<path d="M4759 17676 c-105 -43 -181 -117 -232 -224 l-32 -67 -3 -197 -4 -198
591 0 591 0 0 -1645 0 -1645 410 0 410 0 0 1645 0 1645 595 0 595 0 0 355 0
355 -1432 0 -1433 0 -56 -24z"/>
<path d="M13692 17398 l3 -303 390 0 390 0 3 115 c8 291 -51 419 -216 470 -57
18 -93 20 -318 20 l-254 0 2 -302z"/>
<path d="M17940 17395 l0 -305 391 0 391 0 -4 183 c-5 219 -19 267 -97 340
-82 77 -133 87 -432 87 l-249 0 0 -305z"/>
<path d="M30940 15701 l0 -2001 390 0 390 0 0 1833 c0 2030 4 1901 -65 2002
-40 58 -83 95 -157 133 -53 27 -53 27 -305 30 l-253 3 0 -2000z"/>
<path d="M40418 17043 l-3 -658 -46 65 c-231 321 -590 459 -1026 394 -436 -64
-743 -302 -903 -700 -132 -331 -183 -840 -125 -1274 78 -596 364 -972 859
-1129 283 -90 718 -107 1047 -41 523 106 839 423 940 941 37 191 40 342 37
1574 l-3 1190 -31 66 c-38 81 -113 157 -191 196 l-58 28 -247 3 -248 3 -2
-658z m-485 -899 c184 -44 317 -168 397 -368 63 -158 96 -388 87 -606 -21
-472 -171 -734 -473 -826 -91 -28 -305 -26 -399 3 -243 76 -385 278 -436 618
-17 110 -17 391 -1 500 65 436 248 658 572 694 80 9 177 4 253 -15z"/>
<path d="M11775 16854 c-216 -31 -347 -65 -472 -124 -280 -131 -468 -358 -557
-675 -61 -216 -59 -166 -63 -1307 l-4 -1048 396 0 395 0 0 1013 c1 804 3 1028
14 1088 45 252 210 369 520 369 187 0 297 -35 393 -123 57 -52 86 -97 115
-179 l23 -63 5 -910 5 -910 24 -59 c29 -73 89 -140 154 -173 84 -42 162 -53
400 -53 l217 0 0 948 c0 1134 -6 1233 -86 1471 -131 393 -401 619 -850 712
-81 17 -144 21 -349 24 -137 2 -263 1 -280 -1z"/>
<path d="M15895 16844 c-202 -27 -394 -90 -539 -175 -89 -53 -250 -212 -297
-294 -203 -351 -174 -786 70 -1047 113 -121 272 -219 464 -287 119 -42 202
-62 468 -115 356 -72 560 -147 656 -242 52 -53 67 -101 53 -175 -27 -141 -149
-218 -379 -238 -135 -12 -301 0 -412 30 -94 25 -209 96 -255 156 -38 50 -72
137 -80 206 l-7 57 -405 0 -405 0 7 -87 c21 -252 93 -446 222 -591 124 -140
335 -272 524 -326 377 -107 945 -95 1317 29 365 122 582 342 665 673 18 71 22
116 23 252 0 187 -17 268 -80 390 -83 156 -174 239 -370 335 -204 100 -445
174 -830 255 -264 55 -435 123 -517 205 -54 55 -71 97 -66 166 11 146 160 219
448 219 267 0 411 -60 475 -198 32 -67 85 -126 139 -154 76 -39 156 -48 439
-48 248 0 267 1 267 18 -1 99 -50 292 -100 400 -53 113 -112 193 -212 288
-168 158 -409 259 -715 299 -140 18 -430 18 -568 -1z"/>
<path d="M20140 16850 c-430 -60 -705 -230 -846 -525 -39 -82 -81 -208 -97
-292 l-6 -33 388 0 389 0 22 45 c56 115 209 174 456 175 317 1 504 -99 504
-270 0 -157 -165 -262 -470 -300 -349 -43 -509 -74 -685 -131 -414 -136 -623
-362 -680 -739 -49 -319 32 -628 217 -826 257 -274 723 -375 1293 -279 630
107 969 408 1073 958 15 82 17 168 17 797 0 797 3 762 -80 935 -117 244 -365
394 -770 466 -98 18 -169 22 -390 25 -148 1 -299 -1 -335 -6z m820 -1790 c0
-236 -13 -317 -69 -436 -71 -148 -196 -255 -366 -311 -106 -34 -320 -44 -407
-19 -82 23 -147 72 -186 136 -45 76 -56 121 -56 225 0 78 4 99 28 153 36 77
115 154 207 199 67 33 104 44 390 113 92 22 229 62 305 89 77 27 142 49 147
50 4 1 7 -89 7 -199z"/>
<path d="M23200 16854 c-14 -2 -70 -11 -125 -20 -120 -19 -316 -82 -405 -131
-335 -183 -516 -497 -559 -973 -7 -71 -11 -479 -11 -1072 l0 -958 400 0 400 0
0 1043 c0 892 2 1051 15 1100 43 167 152 271 327 312 37 9 112 15 184 15 294
0 452 -102 521 -337 15 -52 18 -152 23 -963 6 -1014 1 -953 80 -1042 90 -103
186 -128 493 -128 l218 0 -4 1048 c-4 1016 -4 1050 -25 1157 -76 398 -256 660
-557 813 -72 36 -242 91 -352 113 -90 18 -148 22 -353 25 -135 1 -256 0 -270
-2z"/>
<path d="M33317 16850 c-192 -24 -348 -70 -497 -146 -468 -238 -690 -756 -667
-1558 6 -217 22 -355 57 -505 113 -480 374 -788 784 -925 193 -65 465 -93 717
-75 397 28 669 142 887 373 197 208 311 491 357 882 18 151 20 500 4 660 -23
241 -87 481 -172 650 -177 350 -461 552 -887 630 -99 19 -477 27 -583 14z
m415 -697 c89 -26 150 -63 215 -129 141 -143 213 -397 213 -749 0 -363 -80
-643 -225 -790 -200 -204 -567 -205 -769 -3 -75 76 -115 144 -155 263 -45 135
-62 249 -68 455 -10 358 51 618 186 787 72 90 203 163 331 183 71 11 206 3
272 -17z"/>
<path d="M7713 15758 c3 -956 5 -1073 21 -1166 48 -286 155 -507 304 -628 122
-100 333 -205 512 -257 318 -92 701 -82 1039 29 140 46 331 141 407 203 173
141 285 392 324 726 6 56 10 482 10 1123 l0 1032 -223 0 c-235 0 -315 -9 -382
-42 -62 -31 -122 -96 -148 -158 l-22 -55 -5 -970 -5 -970 -26 -68 c-81 -206
-227 -290 -504 -289 -278 1 -435 104 -502 328 -16 54 -18 143 -21 1142 l-3
1082 -390 0 -390 0 4 -1062z"/>
<path d="M13690 15261 l0 -1561 395 0 396 0 -3 1418 c-3 1338 -4 1420 -22
1471 -25 75 -59 126 -108 161 -77 56 -117 63 -400 68 l-258 4 0 -1561z"/>
<path d="M17940 15261 l0 -1561 390 0 390 0 0 1400 c0 998 -3 1414 -11 1452
-25 118 -90 197 -195 239 -55 22 -76 23 -316 27 l-258 4 0 -1561z"/>
<path d="M35360 15806 c0 -1060 3 -1140 44 -1326 62 -277 168 -444 365 -575
161 -107 344 -184 543 -226 123 -27 417 -37 566 -19 273 32 568 138 743 266
155 115 267 321 319 589 34 181 40 360 40 1349 l0 958 -257 -4 c-230 -4 -264
-7 -316 -26 -84 -30 -131 -72 -169 -150 l-33 -67 -5 -965 c-6 -1053 -3 -997
-62 -1115 -72 -142 -212 -218 -428 -231 -242 -14 -432 72 -514 234 -57 112
-56 84 -56 1250 l0 1072 -390 0 -390 0 0 -1014z"/>
<path d="M17145 11696 c-109 -18 -187 -41 -270 -83 -191 -95 -273 -230 -263
-429 5 -83 10 -103 42 -169 85 -172 262 -255 651 -305 241 -31 348 -68 409
-140 83 -100 37 -250 -97 -314 -187 -88 -487 -68 -657 45 -57 39 -140 131
-140 157 0 7 -2 12 -4 12 -5 0 -280 -132 -286 -137 -13 -12 64 -126 130 -193
151 -153 354 -220 665 -220 517 0 816 239 766 613 -22 161 -105 272 -263 347
-107 51 -233 83 -438 109 -196 26 -266 42 -340 79 -77 38 -103 79 -98 154 9
132 146 210 368 211 158 0 306 -51 399 -138 l50 -47 135 63 134 64 -13 25
c-62 119 -225 232 -396 274 -149 37 -334 45 -484 22z"/>
<path d="M7530 11680 c-400 -50 -696 -314 -774 -692 -21 -100 -21 -286 0 -386
32 -158 111 -310 217 -420 105 -109 283 -199 469 -239 115 -24 361 -24 477 0
374 80 607 307 687 672 21 94 21 289 0 384 -76 345 -331 591 -689 665 -96 20
-288 28 -387 16z m333 -306 c199 -51 354 -211 402 -415 19 -83 19 -238 0 -314
-56 -216 -193 -355 -405 -410 -85 -23 -261 -23 -354 -1 -263 62 -425 282 -426
576 0 246 139 460 352 542 127 49 295 57 431 22z"/>
<path d="M10840 10811 l0 -851 170 0 170 0 2 283 3 282 165 2 165 2 268 -285
269 -284 209 0 c144 0 209 3 209 11 0 6 -118 133 -263 282 -144 150 -268 279
-275 288 -11 14 -2 19 74 44 191 62 318 195 355 374 17 82 7 253 -19 319 -62
160 -196 281 -373 337 -103 32 -126 34 -661 40 l-468 6 0 -850z m1011 521
c112 -44 191 -170 175 -276 -11 -66 -53 -142 -98 -175 -84 -62 -111 -66 -443
-66 l-300 0 -3 260 c-1 143 0 266 3 273 4 11 60 13 308 10 284 -4 305 -5 358
-26z"/>
<path d="M23658 11653 l-238 -3 0 -845 0 -845 175 0 175 0 0 250 0 250 304 0
c389 0 480 16 622 109 161 105 249 256 261 448 19 304 -166 544 -477 618 -81
19 -340 25 -822 18z m783 -334 c66 -31 124 -88 153 -149 26 -57 27 -176 2
-234 -28 -62 -101 -132 -165 -158 -53 -21 -72 -23 -358 -26 l-303 -3 0 301 0
301 308 -3 307 -3 56 -26z"/>
<path d="M27197 11654 c-4 -4 -7 -387 -7 -851 l0 -843 175 0 175 0 2 283 3
282 161 3 162 2 268 -284 269 -285 208 0 c171 -1 207 1 207 13 0 8 -123 142
-274 297 -150 156 -272 285 -271 287 2 2 29 10 62 19 194 50 334 189 378 375
76 325 -120 614 -465 683 -72 14 -1040 32 -1053 19z m1008 -319 c64 -24 146
-105 163 -161 31 -105 6 -209 -67 -277 -82 -77 -109 -82 -456 -82 l-300 0 -3
260 c-1 143 0 266 3 273 4 11 59 13 308 10 262 -4 309 -7 352 -23z"/>
<path d="M31870 11134 l0 -525 -447 520 -447 521 -143 0 -143 0 0 -845 0 -845
175 0 175 0 2 565 3 565 478 -565 477 -565 110 0 110 0 0 850 0 850 -175 0
-175 0 0 -526z"/>
<path d="M34180 10811 l0 -851 175 0 175 0 0 285 0 285 163 0 163 0 269 -285
269 -285 209 0 c177 0 208 2 205 15 -2 8 -91 105 -198 217 -108 112 -231 240
-273 284 l-78 82 73 22 c238 72 364 226 384 468 23 290 -172 527 -482 586 -60
11 -195 16 -566 21 l-488 6 0 -850z m939 539 c165 -27 262 -140 248 -290 -12
-131 -99 -215 -248 -240 -35 -5 -182 -10 -326 -10 l-263 0 0 275 0 275 263 0
c144 0 291 -5 326 -10z"/>
<path d="M4880 11642 c0 -4 157 -226 350 -492 l350 -485 0 -352 0 -353 175 0
175 0 0 348 0 349 365 486 c201 268 365 491 365 497 0 6 -75 10 -208 10 l-209
0 -237 -340 c-130 -187 -241 -342 -245 -344 -4 -3 -111 150 -237 339 l-229
344 -207 1 c-115 0 -208 -4 -208 -8z"/>
<path d="M8882 11088 c4 -548 5 -565 26 -636 93 -307 323 -483 682 -522 121
-13 275 -1 389 31 264 73 441 260 495 521 13 65 16 164 16 623 l0 545 -170 0
-170 0 0 -517 c0 -561 -3 -601 -55 -703 -78 -153 -262 -236 -467 -210 -176 22
-292 100 -357 240 -44 94 -51 185 -51 723 l0 467 -171 0 -170 0 3 -562z"/>
<path d="M13130 10806 l0 -846 478 0 c270 0 514 5 562 10 306 38 473 168 512
397 30 181 -63 367 -220 441 l-59 28 43 23 c59 32 128 102 156 159 27 56 36
181 19 262 -36 166 -163 286 -366 346 -53 16 -120 18 -592 21 l-533 4 0 -845z
m996 539 c179 -53 222 -261 69 -335 -67 -33 -145 -40 -447 -40 l-278 0 0 195
0 195 303 0 c238 0 314 -3 353 -15z m5 -671 c90 -26 166 -80 196 -138 21 -40
19 -117 -3 -155 -22 -37 -72 -74 -134 -98 -39 -15 -91 -18 -382 -21 l-338 -3
0 215 0 216 303 0 c248 0 313 -3 358 -16z"/>
<path d="M14930 10805 l0 -845 685 0 685 0 0 155 0 155 -512 2 -513 3 0 190 0
190 498 3 497 2 0 145 0 145 -497 2 -498 3 -3 191 -2 191 181 6 c100 4 332 7
516 7 l333 0 0 150 0 150 -685 0 -685 0 0 -845z"/>
<path d="M18260 11510 l0 -140 293 -2 292 -3 3 -702 2 -703 170 0 170 0 0 705
0 705 290 0 290 0 0 140 0 140 -755 0 -755 0 0 -140z"/>
<path d="M20520 10805 l0 -845 170 0 170 0 0 845 0 845 -170 0 -170 0 0 -845z"/>
<path d="M21162 11508 l3 -143 293 -3 292 -2 0 -700 0 -700 170 0 170 0 0 700
0 700 295 0 295 0 0 145 0 145 -760 0 -761 0 3 -142z"/>
<path d="M25816 11623 c-33 -65 -806 -1655 -806 -1659 0 -2 85 -4 188 -4 l189
0 77 160 77 160 480 0 481 0 76 -160 77 -160 188 0 c103 0 187 3 187 8 0 4
-183 384 -407 844 l-408 838 -192 0 -192 0 -15 -27z m334 -598 c68 -143 142
-302 166 -352 l43 -93 -338 0 -339 0 120 253 c66 138 142 299 169 356 27 57
51 102 53 100 2 -2 58 -121 126 -264z"/>
<path d="M28940 11505 l0 -145 290 0 290 0 0 -700 0 -700 175 0 175 0 0 700 0
700 290 0 290 0 0 145 0 145 -755 0 -755 0 0 -145z"/>
<path d="M32530 10805 l0 -845 690 0 690 0 0 155 0 155 -515 0 -515 0 0 195 0
195 495 0 495 0 0 145 0 145 -495 0 -495 0 0 195 0 195 515 0 515 0 0 155 0
155 -690 0 -690 0 0 -845z"/>
</g>
</svg>
