<?xml version="1.0" standalone="no"?>
<!DOCTYPE svg PUBLIC "-//W3C//DTD SVG 20010904//EN"
 "http://www.w3.org/TR/2001/REC-SVG-20010904/DTD/svg10.dtd">
<svg version="1.0" xmlns="http://www.w3.org/2000/svg"
 width="300.000000pt" height="307.000000pt" viewBox="0 0 300.000000 307.000000"
 preserveAspectRatio="xMidYMid meet">
<metadata>
Created by potrace 1.10, written by Peter Selinger 2001-2011
</metadata>
<g transform="translate(0.000000,307.000000) scale(0.100000,-0.100000)"
fill="#000000" stroke="none">
<path d="M1368 2920 c-230 -39 -442 -200 -544 -415 -53 -111 -68 -184 -68
-320 0 -145 15 -212 81 -345 39 -79 60 -109 132 -180 99 -98 166 -140 288
-183 74 -26 107 -31 210 -35 152 -5 240 12 361 73 155 78 261 184 339 339 96
191 101 436 13 632 -140 311 -476 490 -812 434z m206 -29 c9 -14 -25 -24 -80
-22 l-52 1 -37 -54 c-37 -54 -38 -54 -61 -39 -13 8 -24 17 -24 18 0 2 28 20
62 41 34 21 56 40 50 42 -7 2 -10 8 -6 13 7 12 141 12 148 0z m-174 -5 c0 -2
-25 -18 -56 -36 -44 -25 -59 -29 -70 -19 -23 19 -17 26 39 42 52 15 87 21 87
13z m276 -12 c64 -17 65 -17 47 -36 -19 -18 -20 -18 -78 17 -66 39 -62 42 31
19z m2 -80 c2 -1 -9 -9 -24 -17 -28 -15 -29 -15 -61 35 -18 27 -33 52 -33 54
0 3 104 -60 118 -72z m-198 6 c0 -56 -2 -60 -22 -60 -50 0 -54 15 -19 69 18
28 35 51 37 51 2 0 4 -27 4 -60z m77 7 c34 -56 31 -67 -19 -67 -26 0 -26 2
-27 60 0 33 3 60 7 60 4 0 21 -24 39 -53z m-314 9 c15 -22 14 -25 -24 -62 -34
-33 -37 -39 -22 -45 13 -5 29 4 54 28 l36 34 31 -18 c37 -21 37 -24 16 -65
-14 -27 -14 -32 -1 -46 14 -13 17 -11 31 23 9 21 16 42 16 47 0 8 52 4 88 -7
8 -3 12 -25 12 -64 l0 -60 -32 5 c-18 3 -39 7 -46 10 -8 2 -7 -5 4 -21 11 -17
26 -25 45 -25 l29 0 0 -71 c0 -66 -1 -71 -20 -66 -11 3 -20 4 -20 2 0 -2 -3
-10 -6 -19 -5 -12 0 -16 20 -16 23 0 26 -4 26 -35 0 -29 4 -35 21 -35 19 0 20
4 15 34 l-6 33 69 6 c55 5 77 12 114 38 l45 31 -17 63 -18 63 61 24 c34 12 64
24 68 26 7 3 68 -110 68 -126 0 -4 -12 -13 -27 -19 l-28 -11 32 -1 c17 -1 44
-6 58 -11 23 -9 26 -8 21 5 -3 10 5 20 27 31 18 9 51 30 74 46 l42 29 30 -58
c118 -235 105 -497 -36 -717 -47 -72 -145 -176 -166 -176 -18 0 -74 60 -85 91
-6 14 -8 37 -5 52 5 24 10 27 48 27 54 0 153 49 196 98 18 20 43 60 56 90 22
46 24 65 21 135 -4 97 -28 155 -93 221 -122 126 -270 135 -392 22 -72 -66 -91
-76 -143 -76 -45 0 -58 -16 -40 -49 9 -17 8 -22 -5 -27 -8 -3 -15 -16 -15 -29
0 -14 -7 -25 -20 -28 -13 -3 -20 -14 -20 -30 0 -13 -7 -30 -15 -37 -30 -25
-17 -56 45 -110 33 -29 62 -62 64 -74 3 -11 10 -57 17 -100 12 -76 12 -80 -9
-96 -11 -10 -44 -20 -73 -24 -29 -4 -94 -23 -143 -43 -121 -47 -195 -50 -248
-10 -45 35 -52 51 -37 94 9 27 15 33 28 26 16 -8 90 -8 256 -2 89 4 89 4 112
38 13 19 23 45 23 57 0 20 -5 24 -30 24 -16 0 -30 5 -30 10 0 15 -33 12 -56
-5 -20 -15 -80 -19 -133 -9 -21 5 -37 16 -47 35 -20 40 -49 268 -35 282 8 8
27 8 69 -1 52 -11 59 -10 84 8 15 11 32 20 37 20 5 0 12 13 16 29 3 16 13 32
20 35 10 4 13 14 9 34 -4 22 1 40 20 69 38 58 43 102 17 157 -25 50 -104 115
-165 136 -59 19 -147 9 -193 -23 -75 -52 -98 -121 -81 -244 14 -95 13 -97 -67
-142 -30 -17 -62 -45 -75 -65 -12 -20 -24 -36 -26 -36 -10 0 9 145 27 218 35
137 131 285 241 370 51 39 155 101 169 102 4 0 14 -11 22 -24z m608 -16 c38
-22 70 -44 74 -49 3 -5 -14 -23 -36 -40 l-42 -30 -56 57 c-55 55 -57 58 -42
79 9 12 20 23 25 23 6 0 40 -18 77 -40z m-67 -104 c29 -39 30 -37 -41 -65
l-50 -20 -27 61 c-14 34 -25 62 -23 62 1 1 15 8 32 18 28 15 31 15 56 -2 14
-11 38 -35 53 -54z m234 -137 c-34 -21 -67 -39 -73 -39 -5 0 -25 29 -44 65
l-33 65 28 23 c16 12 36 29 44 39 14 15 20 11 78 -49 l64 -65 -64 -39z m-385
104 l26 -58 -32 -6 c-18 -4 -51 -9 -73 -13 l-41 -6 1 63 2 62 39 6 c22 3 43 7
46 8 3 0 18 -25 32 -56z m-403 -35 c53 -23 120 -87 141 -132 17 -39 17 -40 -6
-80 -13 -23 -28 -66 -34 -97 -9 -42 -20 -64 -46 -89 -32 -31 -38 -33 -95 -31
-33 1 -70 -4 -81 -10 -20 -10 -21 -16 -16 -99 13 -179 27 -223 83 -246 40 -17
109 -20 179 -9 49 7 51 6 52 -17 3 -34 -24 -45 -122 -52 -44 -4 -99 -9 -122
-12 -23 -3 -49 -2 -58 3 -32 18 -75 3 -93 -33 -19 -41 -26 -42 -55 -7 -12 15
-32 37 -44 50 -13 13 -23 27 -23 31 0 5 -13 28 -28 53 -16 24 -34 67 -42 94
-7 28 -17 52 -21 55 -5 3 -11 37 -15 75 -4 39 -4 67 0 64 4 -4 24 9 44 28 20
19 63 52 94 74 67 46 74 67 59 171 -11 81 -1 131 37 172 55 59 137 76 212 44z
m450 -100 c7 -23 12 -53 13 -67 2 -27 -13 -33 -123 -45 l-55 -6 0 69 0 68 65
10 c36 6 70 11 77 11 7 1 17 -17 23 -40z m260 -138 c3 -4 19 -14 35 -23 38
-19 105 -90 135 -142 33 -56 34 -181 2 -242 -26 -50 -93 -117 -133 -134 -16
-6 -29 -15 -29 -20 0 -5 -22 -9 -50 -9 -37 0 -55 -5 -70 -20 -38 -38 -18 -124
39 -173 l32 -26 -22 -22 c-11 -11 -42 -30 -68 -41 -25 -12 -48 -24 -51 -28 -9
-13 -165 -40 -245 -43 -44 -2 -109 3 -145 10 -36 7 -80 16 -97 19 -18 4 -33
10 -33 14 0 4 -14 10 -31 14 -17 3 -28 10 -25 15 4 5 0 11 -6 14 -22 8 0 19
47 24 25 3 45 9 45 13 0 4 12 10 28 13 46 9 117 31 122 38 3 4 28 10 55 14 95
14 109 47 80 200 -14 76 -17 82 -65 125 -28 25 -50 54 -50 65 0 21 50 128 63
133 4 2 7 14 7 27 0 29 16 41 62 50 24 5 57 25 92 55 77 68 108 88 141 93 37
6 128 -3 135 -13z"/>
<path d="M2290 2699 c-1 -55 71 -218 116 -260 l24 -22 0 53 c0 33 -8 69 -20
95 -24 50 -119 157 -120 134z"/>
<path d="M647 2650 c-56 -62 -79 -111 -85 -177 -5 -62 5 -67 40 -20 52 67 123
247 98 247 -4 0 -28 -22 -53 -50z"/>
<path d="M719 2516 c-84 -62 -120 -118 -134 -210 -8 -60 1 -58 60 14 42 51
133 216 124 225 -2 2 -25 -11 -50 -29z"/>
<path d="M2230 2537 c0 -39 102 -208 154 -256 l26 -24 0 39 c-1 50 -21 105
-53 148 -31 40 -127 111 -127 93z"/>
<path d="M492 2496 c-19 -43 -34 -149 -27 -200 7 -53 26 -105 52 -146 l17 -25
7 25 c13 47 9 201 -7 273 -21 94 -27 105 -42 73z m27 -133 c0 -21 1 -45 2 -53
1 -8 1 -28 0 -45 -1 -27 -3 -28 -15 -13 -14 19 -14 61 -1 116 10 42 14 41 14
-5z"/>
<path d="M2467 2443 c-9 -38 -19 -87 -23 -111 -7 -53 5 -202 17 -202 5 0 21
24 36 53 35 68 43 187 19 270 -9 32 -20 57 -25 57 -5 0 -16 -30 -24 -67z m41
-130 c-3 -50 -21 -66 -26 -24 -5 31 6 71 19 71 6 0 9 -19 7 -47z"/>
<path d="M658 2279 c-57 -69 -88 -144 -87 -209 0 -30 4 -64 8 -75 7 -18 10
-17 30 15 43 70 95 237 89 288 -3 27 -3 26 -40 -19z m-24 -126 c-4 -21 -16
-47 -27 -58 -13 -12 -19 -14 -15 -5 44 112 54 126 42 63z"/>
<path d="M2296 2283 c14 -84 38 -162 70 -232 42 -91 59 -86 59 17 0 57 -5 76
-33 127 -30 56 -84 125 -97 125 -3 0 -3 -17 1 -37z m88 -145 c3 -15 2 -30 -4
-33 -5 -3 -10 -5 -10 -3 -1 2 -3 21 -6 43 -6 44 9 39 20 -7z"/>
<path d="M427 2153 c6 -92 20 -150 48 -199 24 -41 103 -120 111 -111 22 21
-127 377 -157 377 -4 0 -5 -30 -2 -67z m76 -132 c18 -36 22 -71 9 -71 -11 0
-36 71 -33 94 2 11 -2 16 -8 12 -7 -5 -11 2 -11 16 0 22 0 22 13 3 8 -11 21
-35 30 -54z"/>
<path d="M2533 2178 c-35 -56 -111 -245 -119 -299 l-7 -42 35 27 c44 33 82 87
103 146 17 45 33 210 22 210 -4 0 -19 -19 -34 -42z m-14 -162 c-9 -6 -14 -16
-12 -22 2 -6 -3 -16 -10 -23 -12 -9 -14 -6 -14 16 0 15 6 33 13 41 8 7 14 21
15 30 0 12 3 10 12 -7 9 -19 8 -25 -4 -35z"/>
<path d="M659 2028 c-43 -92 -47 -175 -11 -252 16 -35 26 -46 33 -39 20 20 42
206 34 287 -4 42 -10 76 -14 76 -5 0 -23 -33 -42 -72z m21 -163 c-5 -13 -6
-26 -2 -30 4 -4 0 -6 -8 -3 -20 6 -25 84 -9 124 l12 29 8 -49 c4 -26 4 -59 -1
-71z"/>
<path d="M2286 2078 c-9 -37 -7 -189 5 -254 20 -114 26 -118 59 -42 32 74 25
169 -19 256 -17 34 -33 62 -35 62 -2 0 -6 -10 -10 -22z m54 -134 c13 -34 13
-107 0 -99 -5 3 -10 0 -11 -7 -1 -24 -27 57 -28 88 -1 50 23 61 39 18z"/>
<path d="M454 1875 c14 -61 69 -157 123 -216 50 -54 133 -109 164 -109 13 0
-31 78 -79 140 -47 61 -128 145 -176 183 l-39 31 7 -29z m128 -136 c23 -28 51
-60 61 -70 18 -20 23 -39 10 -39 -14 0 -103 104 -109 127 -3 12 -13 24 -22 26
-16 4 -16 5 0 6 9 0 36 -22 60 -50z"/>
<path d="M2482 1851 c-88 -73 -247 -279 -229 -297 3 -3 26 4 52 15 89 39 203
183 233 294 6 20 9 37 7 37 -2 0 -30 -22 -63 -49z m-22 -79 c0 -11 -77 -114
-93 -124 -27 -17 -39 -8 -18 15 25 27 50 57 75 91 18 25 36 34 36 18z"/>
<path d="M740 1813 c-26 -126 8 -221 110 -308 l23 -20 -5 60 c-9 97 -85 325
-109 325 -4 0 -13 -26 -19 -57z m45 -60 c0 -6 3 -15 8 -19 4 -4 7 -18 7 -31 0
-12 5 -23 10 -23 6 0 10 -12 10 -26 0 -14 5 -34 11 -46 12 -23 8 -31 -13 -23
-27 11 -58 84 -58 137 0 35 4 48 13 46 6 -3 12 -10 12 -15z"/>
<path d="M2206 1823 c-29 -58 -71 -203 -81 -282 l-7 -54 30 22 c85 60 117 135
109 257 -6 109 -18 122 -51 57z m29 -95 c-9 -65 -28 -122 -45 -135 -24 -20
-33 -15 -25 15 4 15 8 36 10 47 9 55 41 114 63 115 1 0 0 -19 -3 -42z"/>
<path d="M895 1599 c18 -108 59 -175 128 -208 50 -24 137 -29 137 -8 0 15
-186 199 -239 236 l-33 24 7 -44z m152 -129 c48 -45 58 -76 21 -65 -54 16
-139 109 -123 135 7 11 31 -5 102 -70z"/>
<path d="M2049 1599 c-70 -55 -219 -203 -219 -218 0 -19 97 -13 139 9 42 21
87 69 103 109 14 33 38 134 34 138 -2 2 -28 -15 -57 -38z m2 -68 c-6 -10 -8
-21 -5 -24 4 -4 -40 -51 -79 -82 -20 -16 -69 -36 -75 -30 -3 3 0 5 7 5 7 0 10
3 7 8 -6 11 42 65 94 107 50 39 66 44 51 16z"/>
<path d="M590 1565 c0 -14 70 -103 109 -138 22 -20 54 -43 71 -52 42 -22 135
-38 172 -30 l30 7 -24 25 c-66 71 -358 224 -358 188z m166 -91 c65 -34 124
-79 124 -95 0 -11 -62 6 -103 29 -49 28 -108 82 -101 93 7 12 2 14 80 -27z"/>
<path d="M2333 1550 c-70 -24 -190 -93 -260 -149 l-58 -45 33 -8 c38 -10 126
4 175 27 18 8 48 28 68 44 43 36 125 151 107 151 -7 -1 -36 -9 -65 -20z m-22
-59 c-6 -10 -26 -32 -46 -49 -81 -72 -189 -95 -120 -27 20 19 152 94 168 95 4
0 3 -8 -2 -19z"/>
<path d="M1045 1330 c-33 -5 -89 -15 -125 -23 -65 -14 -65 -14 -35 -26 64 -27
181 -51 244 -51 82 0 132 13 170 45 16 14 32 25 36 25 18 0 115 -32 115 -38 0
-4 -23 -20 -52 -37 -28 -16 -80 -58 -116 -92 -54 -53 -63 -65 -52 -78 20 -24
36 -18 79 34 23 27 74 73 112 102 l71 52 36 -19 c20 -10 75 -56 122 -101 47
-46 88 -83 91 -83 4 0 12 7 19 15 11 14 6 23 -36 66 -27 28 -79 71 -116 96
-38 26 -66 48 -64 50 2 3 29 11 59 19 l56 14 44 -31 c40 -28 55 -32 133 -36
76 -5 104 -1 189 22 55 15 104 30 109 33 6 3 -33 14 -85 25 -144 30 -346 28
-461 -6 l-88 -25 -92 24 c-104 28 -265 38 -363 24z m152 -21 c32 -1 61 -3 66
-6 14 -8 -21 -32 -62 -42 -40 -9 -150 -3 -181 9 -3 1 -8 2 -12 1 -5 0 -8 3 -8
9 0 5 17 12 38 15 20 4 48 10 62 14 14 5 28 6 32 4 4 -2 33 -4 65 -4z m716 -5
c18 -2 45 -6 61 -10 27 -6 28 -7 10 -17 -10 -6 -21 -12 -24 -12 -3 -1 -24 -5
-47 -9 -51 -9 -152 10 -171 33 -12 14 -7 17 45 22 32 3 66 4 76 1 10 -2 32 -5
50 -8z"/>
<path d="M2701 957 c-58 -20 -75 -54 -77 -155 l-2 -87 -46 3 -46 4 0 -36 0
-36 48 0 47 0 -3 -251 -3 -250 51 3 51 3 -1 248 -1 247 66 0 65 0 0 36 0 37
-65 -6 -65 -6 0 72 c0 95 10 109 84 115 l56 4 0 34 0 34 -62 -1 c-35 0 -78 -5
-97 -12z m66 -32 c4 -4 3 -5 -3 -2 -15 9 -61 -37 -66 -66 -3 -13 -3 -52 0 -86
4 -55 7 -64 29 -72 l24 -9 -25 -22 -25 -23 -5 -223 c-2 -123 -6 -226 -9 -229
-4 -3 -13 -3 -22 0 -13 6 -15 37 -15 226 0 215 0 221 -23 243 l-22 22 22 22
c19 19 23 35 24 86 1 35 1 67 0 71 -1 5 13 24 31 42 32 33 66 41 85 20z"/>
<path d="M1290 885 l0 -55 63 0 63 0 0 55 0 55 -63 0 -63 0 0 -55z m78 23 c17
-17 15 -35 -5 -42 -22 -9 -36 7 -28 33 7 24 16 26 33 9z"/>
<path d="M924 706 c-16 -7 -47 -33 -68 -57 l-39 -44 6 53 6 52 -52 0 -52 0 0
-280 0 -280 50 0 50 0 0 183 c1 164 3 187 22 229 26 57 71 88 128 88 54 0 87
-18 107 -60 15 -30 18 -65 18 -237 l0 -203 50 0 50 0 0 213 c0 116 -5 228 -10
248 -12 42 -52 82 -99 98 -45 15 -129 13 -167 -3z m162 -24 c-2 -4 9 -14 25
-21 39 -17 61 -62 60 -125 0 -28 -1 -106 -2 -173 -1 -66 1 -125 4 -130 8 -12
-20 -46 -32 -38 -7 4 -11 70 -11 187 0 202 -8 233 -66 271 -42 27 -43 37 -3
37 16 0 28 -4 25 -8z m-290 -27 c17 -16 20 -76 10 -165 -3 -30 -8 -104 -10
-165 -2 -60 -4 -116 -5 -123 -1 -8 -9 -12 -18 -10 -16 3 -18 22 -20 223 0 121
1 228 4 238 5 21 20 22 39 2z"/>
<path d="M1630 704 c-66 -29 -118 -95 -135 -173 -4 -18 -7 -64 -7 -101 0 -117
24 -183 86 -238 66 -58 177 -69 262 -27 57 29 90 73 100 133 l7 42 -47 0 c-40
0 -46 -3 -46 -20 0 -65 -70 -118 -139 -105 -51 9 -77 29 -103 78 -19 35 -22
58 -22 137 0 79 3 102 22 138 39 74 115 102 182 67 29 -15 60 -61 60 -88 0
-11 14 -16 46 -19 l45 -3 -6 35 c-19 104 -91 160 -204 160 -36 -1 -82 -8 -101
-16z m4 -63 c-42 -40 -54 -64 -73 -146 -11 -50 -11 -73 4 -150 13 -70 62 -140
110 -159 10 -3 15 -9 12 -13 -12 -11 -96 37 -120 69 -44 60 -57 102 -57 180 0
142 60 238 160 257 2 1 -14 -16 -36 -38z m225 7 c15 -13 28 -27 30 -33 2 -5 6
-16 9 -23 2 -7 2 -15 0 -18 -8 -7 -38 7 -38 19 0 5 -11 25 -26 44 -29 38 -15
44 25 11z m34 -385 c-9 -7 -14 -16 -10 -20 4 -3 -9 -17 -29 -31 -46 -31 -55
-21 -14 17 18 16 29 34 26 40 -4 6 0 11 8 11 9 0 16 6 16 13 0 8 4 7 10 -3 7
-11 5 -19 -7 -27z"/>
<path d="M2185 711 c-119 -29 -185 -129 -185 -280 0 -184 75 -278 230 -289
115 -8 198 30 238 108 33 67 30 75 -25 74 -44 -1 -48 -4 -55 -31 -25 -96 -161
-125 -233 -49 -33 35 -55 93 -55 145 l0 31 205 0 206 0 -7 53 c-9 83 -33 146
-70 182 -53 54 -160 77 -249 56z m-64 -80 c-12 -16 -21 -34 -21 -40 0 -6 -5
-11 -11 -11 -5 0 -7 -5 -4 -10 3 -6 1 -25 -6 -44 -11 -30 -10 -36 9 -56 l21
-22 -21 -22 c-15 -16 -18 -30 -14 -56 11 -71 25 -105 61 -148 29 -35 23 -41
-15 -15 -59 41 -85 97 -94 208 -4 48 13 145 26 145 5 0 7 4 4 8 -5 8 68 92 80
92 3 0 -4 -13 -15 -29z m219 1 c34 -25 60 -79 60 -124 l0 -38 -150 0 -150 0 0
28 c0 35 31 102 58 125 44 40 133 44 182 9z m71 1 c24 -26 50 -80 64 -129 3
-13 -2 -30 -13 -44 -26 -32 -43 -18 -36 28 6 44 -17 116 -48 149 -16 17 -18
23 -7 23 9 0 27 -12 40 -27z m29 -366 c0 -8 -16 -28 -35 -46 -41 -37 -45 -30
-10 22 26 38 45 48 45 24z"/>
<path d="M142 476 c3 -218 4 -237 24 -263 44 -61 163 -92 241 -62 33 12 93 68
93 86 0 7 5 13 10 13 7 0 8 -18 4 -50 l-7 -50 54 0 54 0 -2 277 -3 278 -50 3
-50 3 0 -188 c0 -213 -11 -255 -72 -293 -48 -30 -129 -24 -166 14 l-27 26 -3
220 -3 220 -50 0 -50 0 3 -234z m62 177 c3 -10 4 -45 2 -78 -2 -33 0 -112 4
-175 7 -129 21 -166 72 -199 18 -11 31 -21 28 -22 -39 -6 -60 -6 -60 1 0 5 -9
12 -21 15 -11 4 -29 21 -40 38 -17 29 -19 52 -19 235 0 169 2 202 14 202 8 0
17 -8 20 -17z m386 -223 c0 -132 -3 -240 -7 -240 -29 1 -53 15 -53 32 0 11 -5
28 -11 39 -7 15 -7 24 1 34 8 9 14 76 17 182 5 164 11 193 39 193 12 0 14 -43
14 -240z"/>
<path d="M1300 431 l0 -281 53 0 52 0 -2 277 -3 278 -50 3 -50 3 0 -280z m74
223 c8 -20 8 -428 0 -448 -3 -9 -15 -16 -25 -16 -18 0 -19 11 -19 240 0 229 1
240 19 240 10 0 22 -7 25 -16z"/>
</g>
</svg>
