<?xml version="1.0" standalone="no"?>
<!DOCTYPE svg PUBLIC "-//W3C//DTD SVG 20010904//EN"
 "http://www.w3.org/TR/2001/REC-SVG-20010904/DTD/svg10.dtd">
<svg version="1.0" xmlns="http://www.w3.org/2000/svg"
 width="400.000000pt" height="400.000000pt" viewBox="0 0 400.000000 400.000000"
 preserveAspectRatio="xMidYMid meet">

<g transform="translate(0.000000,400.000000) scale(0.100000,-0.100000)"
fill="#000000" stroke="none">
<path d="M3049 1928 c-93 -186 -169 -340 -169 -343 0 -3 76 -5 170 -5 l170 0
35 70 c42 84 38 109 -18 102 -33 -4 -35 -2 -41 35 -3 21 -8 47 -9 57 -2 11 -9
22 -15 24 -16 5 -15 27 4 64 9 16 11 27 5 24 -6 -4 -11 -2 -11 3 0 6 4 11 9
11 5 0 7 9 4 20 -3 11 0 27 7 35 6 8 9 19 5 24 -13 22 17 51 67 66 70 20 126
19 173 -5 21 -11 40 -19 41 -17 3 4 84 166 84 169 0 2 -77 3 -171 3 l-171 0
-169 -337z"/>
<path d="M803 2118 c-68 -33 -40 -138 37 -138 28 0 70 44 70 73 0 51 -61 88
-107 65z m71 -39 c21 -31 -3 -79 -40 -79 -20 0 -44 29 -44 54 0 47 57 64 84
25z"/>
<path d="M667 2088 c9 -18 19 -49 22 -68 4 -19 11 -35 16 -35 5 0 12 16 16 35
3 19 13 50 22 68 14 25 15 32 4 32 -7 0 -20 -14 -28 -32 l-15 -31 -13 31 c-8
18 -20 32 -27 32 -12 0 -11 -6 3 -32z"/>
<path d="M930 2066 c0 -36 5 -60 16 -70 18 -19 45 -21 62 -4 14 14 16 128 2
128 -5 0 -10 -24 -10 -54 0 -91 -41 -88 -43 3 -1 34 -6 51 -14 51 -9 0 -13
-17 -13 -54z"/>
<path d="M1040 2110 c0 -5 7 -10 15 -10 12 0 15 -13 15 -60 0 -33 4 -60 10
-60 6 0 10 27 10 60 0 47 3 60 15 60 8 0 15 5 15 10 0 6 -18 10 -40 10 -22 0
-40 -4 -40 -10z"/>
<path d="M1137 2113 c-10 -19 -1 -127 11 -131 8 -2 12 7 12 27 0 26 4 31 24
31 19 0 25 -6 28 -25 2 -14 7 -27 13 -28 9 -2 16 98 8 121 -9 21 -23 13 -23
-13 0 -20 -5 -25 -25 -25 -20 0 -25 5 -25 25 0 23 -14 34 -23 18z"/>
<path d="M1320 2050 c0 -81 18 -95 22 -17 l3 52 18 -53 c11 -29 24 -51 30 -49
6 2 18 23 26 48 l16 44 3 -48 c5 -76 27 -54 27 27 0 61 -1 67 -19 64 -13 -2
-24 -17 -34 -45 -7 -24 -17 -43 -22 -43 -4 0 -13 20 -20 45 -9 33 -18 45 -31
45 -17 0 -19 -8 -19 -70z"/>
<path d="M1490 2049 l0 -70 35 3 c39 3 48 20 15 28 -27 6 -27 24 0 28 27 5 26
30 -2 34 -32 4 -29 22 5 26 42 5 32 22 -13 22 l-40 0 0 -71z"/>
<path d="M1590 2049 l0 -72 36 6 c47 8 74 33 74 69 0 39 -32 68 -75 68 l-35 0
0 -71z m75 31 c15 -17 16 -24 7 -45 -7 -16 -20 -25 -34 -25 -20 0 -23 5 -22
40 1 22 2 42 3 45 3 12 29 3 46 -15z"/>
<path d="M1730 2050 c0 -40 4 -70 10 -70 6 0 10 30 10 70 0 40 -4 70 -10 70
-6 0 -10 -30 -10 -70z"/>
<path d="M1770 2110 c0 -5 4 -10 10 -10 5 0 10 -25 12 -55 2 -30 8 -55 13 -55
6 0 11 25 13 55 2 30 7 55 12 55 6 0 10 5 10 10 0 6 -16 10 -35 10 -19 0 -35
-4 -35 -10z"/>
<path d="M1860 2050 l0 -70 35 0 c24 0 35 5 35 15 0 9 -9 15 -25 15 -16 0 -25
6 -25 15 0 9 9 15 25 15 16 0 25 6 25 15 0 9 -10 15 -26 15 -31 0 -28 23 4 28
35 5 25 22 -13 22 l-35 0 0 -70z"/>
<path d="M1960 2050 c0 -40 4 -70 10 -70 6 0 10 12 10 28 l1 27 22 -27 c30
-37 56 -38 32 -2 -16 25 -16 28 -1 36 19 11 21 49 4 66 -7 7 -27 12 -45 12
l-33 0 0 -70z m66 38 c9 -15 -27 -41 -39 -29 -13 13 -1 41 17 41 8 0 18 -5 22
-12z"/>
<path d="M2072 2053 c3 -64 19 -90 26 -44 3 19 5 19 27 -7 13 -15 27 -24 31
-20 4 5 -1 17 -12 29 -17 19 -18 21 -1 30 22 13 23 65 1 73 -9 3 -29 6 -45 6
l-30 0 3 -67z m66 24 c3 -12 -3 -17 -21 -17 -24 0 -26 5 -18 38 3 12 36 -6 39
-21z"/>
<path d="M2204 2064 c-31 -69 -32 -75 -17 -81 6 -2 14 5 18 16 9 29 61 29 70
1 9 -28 28 -25 21 3 -10 43 -47 117 -57 117 -6 0 -21 -25 -35 -56z m46 -10 c0
-8 -4 -14 -10 -14 -5 0 -10 9 -10 21 0 11 5 17 10 14 6 -3 10 -13 10 -21z"/>
<path d="M2322 2053 c3 -77 20 -91 28 -23 l5 45 25 -45 c38 -67 55 -60 56 23
0 47 -4 67 -12 67 -8 0 -14 -18 -16 -47 l-3 -48 -25 48 c-15 30 -31 47 -42 47
-17 0 -19 -7 -16 -67z"/>
<path d="M2470 2050 l0 -70 35 0 c24 0 35 5 35 15 0 9 -9 15 -25 15 -16 0 -25
6 -25 15 0 9 10 15 26 15 31 0 28 23 -4 28 -31 5 -28 32 3 32 14 0 25 5 25 10
0 6 -16 10 -35 10 l-35 0 0 -70z"/>
<path d="M2585 2055 c-28 -65 -26 -100 2 -57 9 12 26 22 38 22 12 0 29 -10 38
-22 27 -42 27 -12 0 55 -16 37 -33 67 -39 67 -7 0 -24 -29 -39 -65z m41 -12
c-11 -11 -19 6 -11 24 8 17 8 17 12 0 3 -10 2 -21 -1 -24z"/>
<path d="M2710 2050 c0 -81 17 -95 22 -18 l3 52 28 -52 c40 -75 57 -69 57 18
0 53 -3 70 -14 70 -9 0 -14 -12 -14 -37 0 -60 -2 -61 -28 -10 -36 70 -54 63
-54 -23z"/>
<path d="M740 1952 c-43 -21 -80 -75 -80 -116 0 -99 112 -166 200 -121 25 13
50 42 50 59 0 10 -46 0 -77 -17 -29 -16 -36 -16 -67 -3 -40 16 -56 42 -56 86
0 64 84 104 136 65 21 -15 64 -20 64 -7 0 16 -47 53 -81 62 -45 13 -48 13 -89
-8z"/>
<path d="M1013 1951 c-125 -57 -81 -251 57 -251 100 0 162 109 114 201 -15 29
-80 69 -114 69 -8 0 -34 -9 -57 -19z m114 -55 l28 -25 -33 -33 c-29 -29 -34
-31 -53 -20 -18 12 -24 11 -46 -9 -20 -20 -26 -21 -34 -9 -15 23 -2 73 27 98
33 29 76 28 111 -2z"/>
<path d="M1550 1963 c-31 -11 -50 -37 -50 -68 0 -34 16 -53 66 -78 38 -20 48
-41 28 -62 -20 -20 -31 -19 -51 5 -21 24 -53 26 -53 5 0 -9 11 -27 25 -40 62
-63 161 6 129 90 -4 9 -25 25 -48 37 -46 23 -57 35 -49 55 7 18 39 17 47 -2 8
-22 46 -19 46 3 0 34 -56 67 -90 55z"/>
<path d="M2644 1959 c-18 -5 -46 -25 -63 -44 -74 -85 -8 -215 109 -215 63 0
130 57 130 111 l0 29 -80 0 c-79 0 -80 0 -80 -25 0 -23 3 -25 52 -25 l52 0
-22 -22 c-15 -15 -33 -22 -58 -21 -79 2 -115 93 -59 148 28 29 80 33 111 10
10 -8 31 -15 47 -15 24 0 26 2 15 19 -26 42 -100 66 -154 50z"/>
<path d="M1244 1833 c1 -124 2 -128 23 -131 21 -3 22 0 25 90 l3 93 55 -93
c48 -81 58 -92 80 -90 l25 3 2 128 3 127 -25 0 c-24 0 -24 -2 -27 -92 l-3 -93
-51 90 c-45 79 -55 90 -81 93 l-31 3 2 -128z"/>
<path d="M1690 1865 c0 -106 14 -148 52 -159 43 -11 69 -6 93 19 23 23 25 31
25 130 0 98 -1 105 -20 105 -19 0 -20 -7 -20 -90 0 -77 -3 -93 -20 -110 -16
-16 -25 -18 -40 -10 -18 10 -20 21 -20 110 0 100 0 100 -25 100 -25 0 -25 0
-25 -95z"/>
<path d="M1912 1833 l3 -128 60 0 c55 0 60 2 63 23 3 20 -1 22 -37 22 l-41 0
0 105 0 105 -25 0 -26 0 3 -127z"/>
<path d="M2030 1940 c0 -15 6 -20 25 -20 l25 0 0 -111 c0 -109 0 -110 23 -107
21 3 22 8 25 111 l3 107 25 0 c19 0 25 5 22 18 -3 14 -16 18 -76 20 -67 3 -72
1 -72 -18z"/>
<path d="M2200 1829 c0 -130 0 -130 23 -127 21 3 22 7 25 131 l3 127 -26 0
-25 0 0 -131z"/>
<path d="M2302 1833 c3 -120 4 -128 23 -128 18 0 20 8 25 88 l5 89 53 -91 c44
-76 57 -91 77 -91 l25 0 0 130 0 130 -24 0 c-23 0 -24 -2 -24 -81 0 -44 -2
-82 -4 -84 -2 -3 -26 34 -53 80 -43 75 -52 85 -77 85 l-29 0 3 -127z"/>
</g>
</svg>
