<?xml version="1.0" standalone="no"?>
<!DOCTYPE svg PUBLIC "-//W3C//DTD SVG 20010904//EN"
 "http://www.w3.org/TR/2001/REC-SVG-20010904/DTD/svg10.dtd">
<svg version="1.0" xmlns="http://www.w3.org/2000/svg"
 width="300.000000pt" height="300.000000pt" viewBox="0 0 300.000000 300.000000"
 preserveAspectRatio="xMidYMid meet">
<metadata>
Created by potrace 1.10, written by Peter Selinger 2001-2011
</metadata>
<g transform="translate(0.000000,300.000000) scale(0.100000,-0.100000)"
fill="#000000" stroke="none">
<path d="M2287 1445 c-70 -140 -127 -256 -127 -258 0 -1 57 -1 127 0 l128 2
26 53 c31 62 28 82 -11 73 -26 -6 -28 -4 -34 39 -4 26 -11 46 -17 46 -13 0
-11 34 3 48 10 10 10 15 -2 22 -11 7 -11 10 -2 10 7 0 10 5 7 10 -4 6 -1 17 5
25 6 8 9 18 6 24 -10 15 22 40 67 52 48 13 104 6 126 -15 13 -14 18 -8 48 51
18 36 33 67 33 69 0 2 -57 4 -128 4 l-127 0 -128 -255z m206 201 c4 -10 -4
-15 -29 -18 -38 -4 -45 -2 -38 16 7 17 61 19 67 2z m98 -4 c-7 -14 -18 -17
-45 -14 -19 2 -37 10 -40 18 -4 11 6 14 45 14 45 0 49 -2 40 -18z m-246 -239
c2 -10 4 -18 5 -18 1 0 3 -13 5 -29 2 -16 15 -41 29 -55 30 -31 33 -57 9 -65
-10 -3 -49 -6 -88 -8 -69 -3 -70 -3 -67 22 5 31 52 121 71 136 8 7 11 16 6 24
-5 9 -4 11 3 6 7 -4 12 -2 12 5 0 17 11 5 15 -18z"/>
<path d="M488 1595 c-4 -4 2 -21 13 -38 10 -18 19 -42 19 -55 0 -13 4 -20 10
-17 6 3 10 16 10 28 0 13 7 33 16 45 22 32 7 43 -16 12 -11 -14 -20 -20 -20
-14 0 16 -25 46 -32 39z"/>
<path d="M590 1580 c-24 -24 -26 -53 -4 -74 18 -19 65 -21 82 -4 20 20 14 65
-10 82 -30 21 -44 20 -68 -4z m70 -39 c0 -29 -25 -45 -49 -31 -25 13 -27 45
-4 59 23 12 53 -4 53 -28z"/>
<path d="M2097 1594 c-3 -3 -3 -22 0 -41 7 -43 -8 -39 -27 7 -20 48 -40 38
-40 -20 0 -55 17 -69 22 -17 l3 32 23 -38 c12 -21 27 -35 32 -32 12 8 13 102
1 109 -4 3 -11 3 -14 0z"/>
<path d="M698 1545 c5 -53 21 -71 51 -55 16 8 21 20 21 55 0 57 -18 59 -22 3
-4 -59 -28 -63 -28 -4 0 30 -4 46 -13 46 -8 0 -11 -14 -9 -45z"/>
<path d="M780 1580 c0 -5 5 -10 10 -10 6 0 10 -18 10 -40 0 -22 5 -40 10 -40
6 0 10 18 10 40 0 22 5 40 10 40 6 0 10 5 10 10 0 6 -13 10 -30 10 -16 0 -30
-4 -30 -10z"/>
<path d="M850 1540 c0 -27 5 -50 10 -50 6 0 10 9 10 20 0 13 7 20 20 20 15 0
20 -7 20 -26 0 -14 4 -23 10 -19 16 10 13 105 -4 105 -9 0 -12 -7 -9 -20 4
-15 0 -20 -16 -20 -14 0 -21 6 -21 20 0 11 -4 20 -10 20 -5 0 -10 -22 -10 -50z"/>
<path d="M990 1534 c0 -59 19 -69 21 -11 l1 32 11 -33 c12 -40 27 -37 43 9
l12 34 1 -37 c1 -57 21 -45 21 12 0 61 -20 68 -42 13 l-14 -38 -13 38 c-20 58
-41 48 -41 -19z"/>
<path d="M1120 1540 c0 -47 2 -50 25 -50 14 0 25 5 25 10 0 6 -7 10 -15 10 -8
0 -15 5 -15 10 0 6 7 10 15 10 8 0 15 5 15 10 0 6 -7 10 -15 10 -8 0 -15 5
-15 10 0 6 6 10 14 10 8 0 18 5 21 10 4 6 -7 10 -24 10 -30 0 -31 -1 -31 -50z"/>
<path d="M1190 1540 c0 -48 1 -50 28 -50 48 0 70 32 50 75 -9 19 -19 25 -45
25 l-33 0 0 -50z m64 15 c8 -23 -4 -45 -25 -45 -14 0 -19 7 -19 30 0 23 5 30
19 30 10 0 21 -7 25 -15z"/>
<path d="M1290 1540 c0 -39 3 -50 16 -50 11 0 14 5 10 16 -3 9 -6 31 -6 50 0
19 -4 34 -10 34 -5 0 -10 -22 -10 -50z"/>
<path d="M1328 1578 c7 -7 12 -29 12 -50 0 -21 5 -38 10 -38 6 0 10 18 10 40
0 22 5 40 10 40 6 0 10 5 10 10 0 6 -14 10 -32 10 -25 0 -29 -3 -20 -12z"/>
<path d="M1390 1540 c0 -49 1 -50 30 -50 17 0 30 5 30 10 0 6 -9 10 -20 10
-11 0 -20 5 -20 10 0 6 9 10 20 10 11 0 20 5 20 10 0 6 -9 10 -20 10 -11 0
-20 5 -20 10 0 6 9 10 20 10 11 0 20 5 20 10 0 6 -13 10 -30 10 -29 0 -30 -1
-30 -50z"/>
<path d="M1470 1540 c0 -27 5 -50 10 -50 6 0 10 8 10 17 0 15 2 14 14 -3 8
-10 18 -16 22 -11 4 4 2 13 -4 19 -8 8 -7 14 5 23 26 19 8 55 -28 55 -28 0
-29 -1 -29 -50z"/>
<path d="M1550 1540 c0 -27 5 -50 10 -50 6 0 10 7 10 17 0 15 1 15 18 0 23
-21 39 -22 23 -3 -9 11 -9 19 0 34 18 29 5 52 -31 52 -29 0 -30 -1 -30 -50z"/>
<path d="M1649 1544 c-22 -53 -20 -61 10 -42 17 11 25 11 42 0 12 -7 22 -12
24 -10 6 6 -38 98 -47 98 -5 0 -18 -21 -29 -46z"/>
<path d="M1740 1540 c0 -27 5 -50 10 -50 6 0 10 17 10 38 l1 37 20 -37 c29
-55 49 -50 49 12 0 28 -4 50 -10 50 -5 0 -10 -17 -10 -37 l0 -38 -22 38 c-31
53 -48 48 -48 -13z"/>
<path d="M1850 1540 c0 -49 1 -50 31 -50 17 0 28 4 24 10 -3 6 -13 10 -21 10
-8 0 -14 5 -14 10 0 6 9 10 20 10 11 0 20 5 20 10 0 6 -9 10 -20 10 -11 0 -20
5 -20 10 0 6 9 10 20 10 11 0 20 5 20 10 0 6 -13 10 -30 10 -29 0 -30 -1 -30
-50z"/>
<path d="M1937 1541 c-21 -59 -21 -72 -2 -47 18 24 44 29 52 10 3 -8 11 -14
18 -14 10 0 8 13 -8 50 -11 28 -26 50 -32 50 -6 0 -18 -22 -28 -49z"/>
<path d="M533 1452 c-59 -45 -46 -139 22 -168 43 -18 91 -7 121 28 21 23 29
23 -73 2 -60 -12 -97 62 -53 106 24 24 72 26 90 5 16 -19 40 -19 40 -1 0 42
-104 62 -147 28z"/>
<path d="M747 1459 c-9 -5 -24 -24 -33 -41 -40 -78 32 -161 119 -137 68 18 89
101 41 158 -21 26 -33 31 -67 31 -23 0 -50 -5 -60 -11z m96 -33 c23 -18 22
-28 -6 -54 -18 -17 -26 -19 -35 -10 -9 9 -16 8 -30 -5 -26 -24 -32 -21 -32 15
0 58 58 88 103 54z"/>
<path d="M930 1376 c0 -95 5 -112 29 -97 9 6 12 27 9 70 -1 33 0 61 4 61 3 0
22 -28 40 -62 24 -43 42 -64 56 -66 21 -3 22 0 22 92 0 85 -2 96 -17 96 -15 0
-17 -8 -15 -49 7 -98 0 -102 -42 -23 -31 58 -43 72 -62 72 -24 0 -24 -2 -24
-94z"/>
<path d="M1136 1455 c-31 -31 -19 -63 32 -89 36 -19 45 -56 13 -56 -11 0 -23
5 -26 10 -3 6 -15 10 -26 10 -17 0 -18 -3 -9 -20 6 -12 23 -25 37 -31 33 -12
70 10 79 48 6 21 2 31 -20 50 -15 13 -34 23 -42 23 -8 0 -14 9 -14 20 0 23 12
25 40 8 24 -15 38 -3 24 20 -15 23 -67 27 -88 7z"/>
<path d="M1270 1385 c5 -90 10 -100 52 -110 21 -5 33 -1 52 19 23 22 26 33 26
101 0 68 -2 75 -20 75 -17 0 -19 -8 -22 -77 -3 -76 -4 -78 -28 -78 -24 0 -25
2 -28 78 -2 65 -6 77 -20 77 -15 0 -16 -10 -12 -85z"/>
<path d="M1430 1375 l0 -95 50 0 c38 0 50 4 50 15 0 10 -10 15 -30 15 l-30 0
0 80 c0 73 -2 80 -20 80 -19 0 -20 -7 -20 -95z"/>
<path d="M1520 1455 c0 -8 9 -15 20 -15 18 0 20 -7 20 -84 0 -81 1 -84 21 -79
19 5 21 12 17 84 -3 70 -1 79 14 79 10 0 18 7 18 15 0 12 -13 15 -55 15 -42 0
-55 -3 -55 -15z"/>
<path d="M1650 1371 c0 -94 1 -99 20 -94 18 5 20 14 20 99 0 87 -1 94 -20 94
-19 0 -20 -7 -20 -99z"/>
<path d="M1726 1373 c0 -83 2 -97 17 -99 15 -2 17 8 17 74 l0 77 40 -72 c23
-40 47 -73 55 -73 8 0 18 -1 21 -2 3 -2 6 41 7 95 2 86 0 97 -15 97 -16 0 -18
-10 -18 -72 l0 -73 -41 73 c-31 55 -46 72 -62 72 -21 0 -22 -4 -21 -97z"/>
<path d="M1947 1450 c-56 -44 -42 -130 25 -163 31 -15 44 -17 72 -7 40 13 62
35 71 73 l7 27 -66 0 c-61 0 -66 -2 -66 -21 0 -19 4 -21 40 -16 43 5 53 -6 21
-23 -51 -27 -101 2 -101 57 0 54 61 82 106 48 21 -16 54 -20 54 -6 0 5 -12 19
-26 30 -36 28 -102 28 -137 1z"/>
</g>
</svg>
