<?xml version="1.0" standalone="no"?>
<!DOCTYPE svg PUBLIC "-//W3C//DTD SVG 20010904//EN"
 "http://www.w3.org/TR/2001/REC-SVG-20010904/DTD/svg10.dtd">
<svg version="1.0" xmlns="http://www.w3.org/2000/svg"
 width="512.000000pt" height="512.000000pt" viewBox="0 0 512.000000 512.000000"
 preserveAspectRatio="xMidYMid meet">

<g transform="translate(0.000000,512.000000) scale(0.100000,-0.100000)"
fill="#000000" stroke="none">
<path d="M2583 5109 c-55 -13 -125 -76 -143 -128 -8 -27 -11 -67 -7 -119 4
-68 11 -93 47 -163 23 -46 72 -126 107 -178 36 -51 78 -126 93 -166 28 -71 85
-303 77 -311 -2 -3 -87 -20 -188 -40 -101 -20 -220 -44 -264 -55 -124 -29
-124 -29 -70 60 49 79 82 179 94 286 6 50 16 132 22 184 14 117 1 232 -37 308
-69 141 -280 244 -474 229 -237 -17 -418 -157 -497 -383 -25 -73 -27 -89 -27
-243 0 -116 5 -192 17 -255 20 -104 80 -327 102 -379 8 -19 15 -39 15 -43 0
-5 -33 -28 -74 -52 -165 -97 -399 -299 -436 -376 -44 -91 -36 -172 30 -306 57
-115 114 -195 210 -291 l87 -88 -56 -28 c-71 -35 -101 -78 -101 -144 0 -91 46
-137 158 -158 162 -32 305 29 377 161 24 45 30 69 33 139 7 147 -22 225 -162
433 -36 53 -66 100 -66 102 0 6 272 136 276 133 1 -2 36 -85 78 -185 l76 -181
0 -139 c0 -297 -39 -582 -117 -866 -33 -121 -34 -129 -18 -153 21 -32 58 -46
89 -34 32 12 38 24 74 150 83 290 127 633 120 930 l-4 165 -53 122 -53 122 29
43 c35 51 68 129 77 180 15 83 178 153 310 134 42 -7 46 -10 56 -44 6 -20 16
-76 22 -123 10 -74 9 -106 -6 -210 -32 -222 -33 -205 13 -297 137 -273 339
-505 518 -596 l33 -16 -80 -77 c-98 -93 -140 -169 -147 -267 -6 -72 2 -91 46
-107 52 -20 101 27 101 98 0 47 42 114 112 176 88 79 136 150 164 248 31 109
56 160 99 207 43 49 89 66 148 57 134 -22 319 -171 382 -307 41 -88 36 -102
-49 -134 -28 -10 -74 -41 -108 -73 -67 -61 -119 -159 -183 -341 -44 -125 -89
-214 -119 -233 -11 -8 -43 -17 -71 -21 -138 -18 -188 -78 -286 -334 -38 -102
-76 -149 -127 -157 -159 -24 -214 -58 -331 -206 -128 -161 -151 -176 -294
-189 -114 -10 -122 -13 -257 -63 -139 -52 -204 -67 -302 -68 -80 -1 -92 2
-149 32 -128 68 -209 173 -209 268 0 90 15 118 125 231 153 160 305 379 305
442 0 39 -31 71 -68 71 -41 0 -54 -12 -108 -102 -68 -113 -146 -213 -251 -323
-125 -130 -148 -178 -148 -308 1 -122 24 -183 101 -269 104 -114 215 -175 347
-190 98 -11 197 3 328 48 l86 29 17 -35 c38 -80 156 -181 302 -258 55 -30 76
-36 107 -32 48 6 82 29 108 70 18 30 19 44 13 248 l-7 217 75 93 c86 107 126
133 213 143 107 12 171 57 218 153 12 24 25 42 31 40 5 -2 87 -112 181 -246
l172 -243 6 -89 c17 -232 118 -358 332 -415 73 -20 261 -29 312 -15 69 19 116
97 99 164 -3 12 -44 88 -92 167 -47 80 -145 246 -216 370 -72 124 -140 235
-151 247 -42 47 -127 17 -127 -44 0 -15 52 -115 130 -249 72 -122 130 -225
130 -228 0 -8 -70 6 -116 24 -95 35 -120 64 -357 398 -125 177 -230 329 -233
337 -3 8 6 35 20 59 28 47 56 62 130 68 l40 3 47 -79 c52 -88 70 -106 110
-106 31 0 69 40 69 74 0 11 -25 64 -54 116 -33 58 -51 99 -46 105 20 25 72
141 109 243 49 138 97 234 134 269 15 16 60 44 100 63 123 60 159 138 123 263
-34 116 -178 286 -310 366 -103 62 -172 84 -261 83 -96 0 -158 -24 -220 -87
-41 -41 -103 -149 -125 -217 -6 -21 -14 -38 -16 -38 -3 0 -31 16 -62 36 -130
83 -297 285 -392 474 l-39 77 20 129 c24 164 23 242 -4 398 -1 5 30 15 68 22
387 67 616 219 633 419 5 65 -18 197 -44 246 -22 44 -66 51 -108 18 -31 -24
-33 -56 -11 -139 21 -79 19 -127 -9 -174 -56 -96 -241 -181 -488 -222 l-106
-18 -79 74 c-44 42 -74 78 -68 81 8 6 321 68 503 101 39 7 57 16 69 35 15 23
15 33 -5 151 -40 245 -85 362 -202 537 -90 134 -120 199 -122 260 -1 60 16 77
85 83 67 5 87 -11 87 -72 0 -72 20 -159 49 -211 52 -94 143 -240 164 -262 26
-29 66 -29 95 -3 43 40 28 86 -91 273 -44 69 -51 87 -63 170 -22 149 -24 156
-55 192 -50 57 -156 78 -266 54z m-551 -269 c97 -36 167 -117 168 -192 l0 -28
-52 40 c-61 46 -115 64 -167 55 -57 -9 -93 -36 -156 -115 -32 -40 -87 -105
-123 -144 -89 -98 -123 -173 -130 -286 -6 -110 -2 -126 47 -181 40 -46 60
-114 47 -156 -5 -17 -74 -60 -81 -51 -19 24 -91 305 -109 431 -37 245 -7 408
97 522 108 121 301 165 459 105z m24 -299 c50 -35 92 -85 114 -133 31 -69 -2
-224 -69 -330 -80 -125 -217 -134 -341 -22 l-42 38 4 66 c5 83 24 122 106 212
37 40 89 101 115 136 27 34 54 62 61 62 7 0 31 -13 52 -29z m16 -721 c6 -19
34 -49 72 -77 33 -25 65 -50 69 -54 5 -4 -17 -15 -49 -24 -32 -9 -84 -30 -116
-46 l-59 -30 -64 65 c-36 36 -79 73 -95 83 -20 11 -28 23 -24 33 3 8 8 28 11
43 6 27 7 28 52 20 56 -10 130 -7 162 6 13 5 25 10 27 10 2 1 8 -13 14 -29z
m-339 -201 c25 -16 71 -57 101 -89 l54 -59 -13 -57 c-13 -55 -35 -95 -35 -62
0 22 -49 68 -74 68 -29 0 -437 -202 -460 -228 -10 -12 -20 -40 -23 -64 -4 -36
0 -50 27 -88 71 -101 140 -209 176 -274 32 -59 38 -80 42 -146 3 -60 0 -85
-13 -114 -35 -72 -137 -113 -225 -88 l-35 9 50 22 c82 37 118 83 117 152 -1
54 -14 72 -122 179 -100 98 -172 202 -216 308 -28 67 -29 93 -9 132 19 37 209
200 318 273 86 58 264 156 283 157 6 0 31 -14 57 -31z m692 -3280 c4 -66 5
-122 3 -124 -19 -20 -268 180 -254 203 3 5 43 12 90 15 46 4 95 11 108 16 44
18 45 16 53 -110z m1300 -24 c33 -13 103 -28 155 -34 103 -13 105 -14 151 -95
l22 -39 -100 6 c-173 10 -286 73 -318 176 -6 21 -5 23 11 16 11 -4 46 -18 79
-30z"/>
</g>
</svg>
